<?xml version="1.0" encoding="UTF-8" standalone="no"?>
<!-- Created with Inkscape (http://www.inkscape.org/) -->

<svg
   width="10in"
   height="10in"
   viewBox="0 0 254 254"
   version="1.1"
   id="svg1"
   xml:space="preserve"
   inkscape:export-filename="logo.png"
   inkscape:export-xdpi="96"
   inkscape:export-ydpi="96"
   xmlns:inkscape="http://www.inkscape.org/namespaces/inkscape"
   xmlns:sodipodi="http://sodipodi.sourceforge.net/DTD/sodipodi-0.dtd"
   xmlns="http://www.w3.org/2000/svg"
   xmlns:svg="http://www.w3.org/2000/svg"><sodipodi:namedview
     id="namedview1"
     pagecolor="#ffffff"
     bordercolor="#000000"
     borderopacity="0.25"
     inkscape:showpageshadow="2"
     inkscape:pageopacity="0.0"
     inkscape:pagecheckerboard="0"
     inkscape:deskcolor="#d1d1d1"
     inkscape:document-units="mm"><inkscape:page
       x="0"
       y="0"
       width="254"
       height="254"
       id="page2"
       margin="0"
       bleed="0" /></sodipodi:namedview><defs
     id="defs1"><inkscape:path-effect
       effect="bend_path"
       id="path-effect31"
       is_visible="true"
       lpeversion="1"
       bendpath="m -56.07196,225.64184 c 125.319478,23.462 125.130399,-10.91998 201.01268,-65.74628"
       prop_scale="1"
       scale_y_rel="false"
       vertical="false"
       hide_knot="false"
       bendpath-nodetypes="cc" /><clipPath
       clipPathUnits="userSpaceOnUse"
       id="clipPath1"><circle
         style="fill:#ffdf00;fill-opacity:1;stroke-width:1.31;stroke-linecap:round;stroke-linejoin:round"
         id="circle1"
         cx="127"
         cy="127"
         r="118.12114" /></clipPath><clipPath
       clipPathUnits="userSpaceOnUse"
       id="clipPath29"><circle
         style="fill:#000080;fill-opacity:1;stroke-width:1.29682;stroke-linecap:round;stroke-linejoin:round"
         id="circle29"
         cx="153.30571"
         cy="123.60571"
         r="116.93314"
         clip-path="url(#clipPath1)"
         transform="matrix(0.30120798,0,0,0.30120798,133.67064,81.081208)" /></clipPath></defs><g
     inkscape:label="Layer 1"
     inkscape:groupmode="layer"
     id="layer1"><circle
       style="fill:#ffdf00;fill-opacity:1;stroke-width:1.31;stroke-linecap:round;stroke-linejoin:round"
       id="path1"
       cx="127"
       cy="127"
       r="118.12114" /><ellipse
       style="fill:#000080;fill-opacity:1;stroke-width:1.26304;stroke-linecap:round;stroke-linejoin:round"
       id="path1-9"
       cx="130.56401"
       cy="127"
       rx="109.80514"
       ry="118.12114" /><g
       id="g16"
       transform="matrix(3.3199652,0,0,3.3199652,-443.78187,-269.18679)"
       clip-path="url(#clipPath29)"><path
         style="fill:#92ca72"
         d="m 175.36914,156.98176 c 0.191,-0.0764 0.4192,-0.067 0.50712,0.0209 0.0879,0.0879 -0.0684,0.15045 -0.34726,0.13896 -0.30823,-0.0127 -0.37092,-0.0754 -0.15986,-0.15985 z m 6.61459,0 c 0.19099,-0.0764 0.4192,-0.067 0.50712,0.0209 0.0879,0.0879 -0.0683,0.15045 -0.34727,0.13896 -0.30822,-0.0127 -0.37092,-0.0754 -0.15985,-0.15985 z m 23.06836,-10.79947 c 0.79042,-0.80036 1.49666,-1.45521 1.56942,-1.45521 0.0728,0 -0.51442,0.65485 -1.30484,1.45521 -0.79042,0.80037 -1.49666,1.45521 -1.56942,1.45521 -0.0728,0 0.51441,-0.65484 1.30484,-1.45521 z m -52.53224,0.0661 -1.04589,-1.12448 1.12448,1.04588 c 1.04576,0.97267 1.24606,1.20308 1.04589,1.20308 -0.0432,0 -0.54925,-0.50602 -1.12448,-1.12448 z m 13.3739,-13.69086 c 0,-0.0893 -0.50601,-0.18928 -1.12448,-0.22207 -2.28698,-0.12126 -6.47169,-1.79189 -8.47191,-3.38218 -0.61557,-0.48942 -1.26806,-0.89102 -1.44996,-0.89243 -0.1819,-10e-4 -0.33073,-0.16448 -0.33073,-0.36238 0,-0.1979 -0.30675,-0.58485 -0.68167,-0.8599 -0.74702,-0.54802 -1.435,-1.68154 -1.435,-2.36432 0,-0.23943 0.25984,-0.80022 0.57742,-1.24622 0.72873,-1.02342 0.82218,-1.88238 0.33233,-3.05476 -0.36388,-0.8709 -0.41325,-0.89868 -0.86707,-0.48798 -0.62186,0.56277 -0.59758,0.56748 -1.7355,-0.33682 -0.58487,-0.4648 -0.85753,-0.84296 -0.68477,-0.94974 0.18132,-0.11206 0.0386,-0.40771 -0.38746,-0.80255 -0.37099,-0.34382 -0.67453,-0.7965 -0.67453,-1.00595 0,-0.44284 1.08101,-0.779 1.71845,-0.53439 0.42363,0.16256 0.42319,0.43266 -0.003,1.94828 -0.0614,0.21828 0.1118,0.68891 0.3849,1.04584 0.42756,0.5588 0.585,0.60865 1.13333,0.35882 0.42408,-0.19323 0.79117,-0.20375 1.09894,-0.0315 0.57895,0.324 1.22376,0.0947 1.22376,-0.43526 0,-0.48284 1.92937,-1.36748 2.06898,-0.94865 0.0511,0.15325 0.19937,0.21283 0.32952,0.13239 0.13015,-0.0804 0.74637,0.0268 1.36939,0.23833 0.62301,0.21152 1.45703,0.32259 1.85338,0.24682 0.60049,-0.11479 0.90878,0.0654 1.84916,1.08059 0.79169,0.8547 1.40353,1.26289 2.04987,1.36758 1.1522,0.18664 1.75854,0.72717 2.40327,2.14243 0.38815,0.85205 0.72694,1.18257 1.46025,1.42458 0.52516,0.17332 1.27075,0.47995 1.65686,0.68141 0.38612,0.20146 0.96078,0.36702 1.27704,0.36791 0.31626,9e-4 0.91157,0.27903 1.32292,0.61806 0.41135,0.33904 0.95626,0.69249 1.21092,0.78545 1.3723,0.50093 -0.57217,4.44318 -2.43957,4.94602 -1.26716,0.34121 -5.03491,0.73977 -5.03491,0.5326 z m -24.05619,-9.41609 c 0.0127,-0.30822 0.0754,-0.37092 0.15985,-0.15985 0.0764,0.191 0.067,0.4192 -0.0209,0.50712 -0.0879,0.0879 -0.15045,-0.0683 -0.13896,-0.34727 z m 41.25608,-5.04321 c -0.72545,-0.82624 -0.81668,-1.0818 -0.63753,-1.78594 0.11499,-0.45194 0.22551,-1.53609 0.24562,-2.40921 0.0381,-1.6557 0.93845,-3.69772 1.54168,-3.49665 0.36187,0.12063 0.92448,3.69092 0.78032,4.95185 -0.20654,1.80645 -0.64973,3.70417 -0.86508,3.70417 -0.12012,0 -0.59938,-0.4339 -1.06501,-0.96422 z m 32.29809,-3.42345 c 0.0127,-0.30823 0.0754,-0.37092 0.15985,-0.15986 0.0764,0.191 0.067,0.4192 -0.0209,0.50712 -0.0879,0.0879 -0.15045,-0.0684 -0.13896,-0.34726 z m -59.10317,-0.0374 c -0.7334,-0.17992 -0.0276,-0.86658 0.89073,-0.86658 0.64295,0 1.28079,0.40862 1.0019,0.64185 -0.2214,0.18513 -1.45633,0.33177 -1.89263,0.22473 z m -7.31972,-0.63574 c -0.005,-0.23684 0.17017,-0.57884 0.38846,-0.76 0.50867,-0.42216 0.51402,0.009 0.008,0.67703 -0.32635,0.43147 -0.38981,0.44474 -0.39687,0.083 z m -6.60211,-0.64976 c 0.0127,-0.30822 0.0754,-0.37092 0.15985,-0.15985 0.0764,0.19099 0.067,0.4192 -0.0209,0.50712 -0.0879,0.0879 -0.15045,-0.0683 -0.13896,-0.34727 z m 11.70007,0.0478 c -0.11637,-0.20409 -0.62831,-0.55157 -1.13763,-0.77217 -0.80722,-0.34963 -0.84489,-0.40386 -0.29356,-0.42267 0.69882,-0.0238 2.93939,1.00385 2.93939,1.34823 0,0.37015 -1.28415,0.23955 -1.5082,-0.15339 z m -11.43549,-1.37077 c 0.0127,-0.30822 0.0754,-0.37092 0.15985,-0.15985 0.0764,0.191 0.067,0.4192 -0.0209,0.50712 -0.0879,0.0879 -0.15045,-0.0683 -0.13896,-0.34727 z m 10.43322,-1.4993 c -0.0619,-0.1819 -0.14749,-0.68792 -0.19013,-1.12448 -0.0522,-0.53435 -0.22273,-0.79485 -0.52187,-0.79713 -0.24439,-0.002 -0.53212,-0.0911 -0.63941,-0.19843 -0.10728,-0.10729 -0.4809,-0.19507 -0.83025,-0.19507 -0.53319,0 -0.60763,-0.0956 -0.46354,-0.59531 0.28884,-1.00171 2.39676,-3.95179 3.94945,-5.52736 0.80895,-0.82086 1.47081,-1.45278 1.47081,-1.40427 0,0.0485 0.62236,-0.32168 1.38303,-0.82264 0.76066,-0.500958 1.4605,-0.910832 1.55518,-0.910832 0.0947,0 0.63319,-0.201126 1.19666,-0.446946 1.18396,-0.51651 0.99166,-0.454884 2.34742,-0.752257 1.3086,-0.287028 1.24078,-0.268874 1.71979,-0.460359 0.21828,-0.08726 1.23031,-0.217508 2.24896,-0.289445 1.61009,-0.113706 1.78801,-0.08357 1.36169,0.230686 -0.26972,0.198814 -0.92456,0.372224 -1.45521,0.385356 -1.55385,0.03845 -1.72515,0.09126 -2.41338,0.744033 l -0.65481,0.621078 0.73818,-0.280656 c 0.99027,-0.3765 1.47355,-0.346363 0.94174,0.05872 -0.47979,0.365461 -0.29881,1.115826 0.26912,1.115826 0.63596,0 0.60924,0.587776 -0.033,0.726776 -0.33351,0.0722 -0.83427,0.2263 -1.1128,0.3425 -0.37685,0.15722 -0.45299,0.12483 -0.29759,-0.12661 0.15777,-0.25529 0.0552,-0.28998 -0.41962,-0.14193 -1.38331,0.43136 -1.78074,0.64242 -2.1231,1.12754 -0.19659,0.27856 -0.71709,0.69174 -1.15668,0.91818 -1.00129,0.51578 -2.23665,1.73501 -2.5254,2.49242 -0.12085,0.31701 -0.64656,0.77892 -1.16824,1.02648 -0.52168,0.24755 -1.30178,0.78009 -1.73354,1.18342 -0.67179,0.62755 -0.78503,0.92792 -0.78503,2.08238 0,1.2343 -0.38309,1.82683 -0.65839,1.01833 z M 167.92701,98.9922 c -0.45947,-0.181155 -0.45826,-0.209282 0.0279,-0.649241 0.59153,-0.535335 1.26873,-0.366057 1.45989,0.364928 0.10235,0.391406 1.8e-4,0.506516 -0.43695,0.492268 -0.3138,-0.01023 -0.78667,-0.103808 -1.05083,-0.207955 z m -17.77596,-2.419282 c 0.26338,-0.291042 0.53842,-0.529167 0.61118,-0.529167 0.0728,0 -0.0832,0.238125 -0.3466,0.529167 -0.26339,0.291041 -0.53842,0.529166 -0.61118,0.529166 -0.0728,0 0.0832,-0.238125 0.3466,-0.529166 z m 54.7563,-2.711979 -1.04589,-1.12448 1.12448,1.045884 c 1.04576,0.972662 1.24606,1.203075 1.04589,1.203075 -0.0432,0 -0.54925,-0.506016 -1.12448,-1.124479 z m -53.03651,0.777105 c 0,-0.04553 0.38695,-0.432488 0.85989,-0.859896 l 0.8599,-0.777105 -0.77711,0.859896 c -0.72437,0.801543 -0.94268,0.981511 -0.94268,0.777105 z m 3.30729,-3.09221 c 0.26339,-0.291041 0.53842,-0.529166 0.61118,-0.529166 0.0728,0 -0.0832,0.238125 -0.3466,0.529166 -0.26339,0.291042 -0.53842,0.529167 -0.61118,0.529167 -0.0728,0 0.0832,-0.238125 0.3466,-0.529167 z m 20.43906,-8.377311 c 0.1819,-0.0734 0.47956,-0.0734 0.66146,0 0.1819,0.0734 0.0331,0.133452 -0.33073,0.133452 -0.3638,0 -0.51263,-0.06005 -0.33073,-0.133452 z m 6.10195,-0.0055 c 0.191,-0.07643 0.4192,-0.06703 0.50712,0.02089 0.0879,0.08792 -0.0684,0.150452 -0.34726,0.138964 -0.30823,-0.0127 -0.37092,-0.07539 -0.15986,-0.159854 z"
         id="path22" /><path
         style="fill:#2eb0c9"
         d="m 172.6797,133.8761 c -0.34858,-1.74294 -0.18768,-2.86324 0.58659,-4.08413 0.81638,-1.28731 0.84478,-2.4437 0.0669,-2.72644 -0.23541,-0.0856 -0.76457,-0.43298 -1.17592,-0.77202 -0.41135,-0.33903 -1.00666,-0.61716 -1.32292,-0.61806 -0.31626,-8.9e-4 -0.89092,-0.16645 -1.27704,-0.36791 -0.38611,-0.20146 -1.1317,-0.50809 -1.65686,-0.68141 -0.73331,-0.24201 -1.0721,-0.57253 -1.46025,-1.42458 -0.64473,-1.41526 -1.25107,-1.95579 -2.40327,-2.14243 -0.64156,-0.10392 -1.25577,-0.51008 -2.02265,-1.33751 -0.9767,-1.05384 -1.23114,-1.18871 -2.24895,-1.19213 -0.63121,-0.002 -1.65042,-0.179 -2.2649,-0.39307 -1.32182,-0.46051 -2.19583,-0.22418 -3.20731,0.86723 -0.42272,0.45612 -0.70014,0.5952 -0.76989,0.38596 -0.06,-0.1799 -0.5088,-0.3271 -0.99741,-0.3271 -1.09297,0 -1.25474,-0.24414 -1.25474,-1.8936 0,-0.93496 -0.12919,-1.3913 -0.45934,-1.62254 -0.37534,-0.2629 -0.44579,-0.66029 -0.3853,-2.17311 0.16489,-4.12318 0.63488,-5.30575 1.78775,-4.49825 0.29444,0.20624 0.56903,0.69092 0.6102,1.07706 0.0923,0.86584 0.23242,1.01751 0.75479,0.81706 0.29179,-0.11197 0.40828,-0.52981 0.40828,-1.46438 0,-1.14581 0.10461,-1.39572 0.84499,-2.0187 0.46474,-0.39106 1.11517,-0.81373 1.4454,-0.93929 0.33023,-0.12555 0.89799,-0.69966 1.26169,-1.2758 0.63202,-1.00118 2.19871,-2.41262 2.67801,-2.41262 0.12486,0 0.6013,-0.36277 1.05877,-0.80616 0.52173,-0.50569 1.16744,-0.83783 1.73238,-0.89112 1.30134,-0.12274 2.62043,-0.45706 2.62043,-0.66412 0,-0.0982 -0.1469,-0.325496 -0.32644,-0.50504 -0.17955,-0.179544 -0.34308,-0.657095 -0.3634,-1.061225 -0.0356,-0.707711 0.0117,-0.735515 1.28442,-0.754714 0.73419,-0.01108 1.41006,-0.163433 1.52095,-0.342856 0.12447,-0.201407 0.26071,-0.224012 0.36203,-0.06007 0.0893,0.144569 -0.0148,0.409984 -0.23151,0.589811 -0.54901,0.455635 -0.49526,0.66024 0.26436,1.006346 1.24062,0.565267 1.82967,-0.09629 1.06182,-1.192546 -0.29144,-0.416092 -0.31247,-0.594122 -0.0794,-0.671822 0.29322,-0.09774 0.34075,-0.901122 0.15287,-2.583979 -0.0735,-0.658436 -0.0642,-0.66134 2.04281,-0.635629 2.29105,0.02796 3.26697,0.143811 3.74644,0.44475 0.16877,0.105928 0.49619,0.11994 0.7276,0.03114 0.24222,-0.09295 0.42075,-0.02517 0.42075,0.15974 0,0.180473 0.17847,0.252716 0.40734,0.16489 0.35099,-0.134689 1.29196,0.211493 1.70933,0.62886 0.43802,0.438021 1.36983,0.760793 1.77548,0.615013 0.26041,-0.09359 0.39123,-0.07886 0.29071,0.03272 -0.17244,0.191402 2.25597,1.998098 2.68566,1.998098 0.40859,0 2.43339,1.780299 2.90291,2.552373 0.26699,0.43902 0.57006,1.41356 0.6735,2.16563 0.10343,0.75208 0.30298,1.36741 0.44343,1.36741 0.14046,0 0.16928,0.1393 0.0641,0.30955 -0.12863,0.20814 -0.0471,0.2542 0.24897,0.1406 0.81647,-0.31331 0.52997,1.03746 -0.35347,1.66652 -0.43656,0.31086 -0.79375,0.73008 -0.79375,0.93161 0,0.71802 -0.58573,1.63355 -1.32417,2.06975 -1.2191,0.72014 -2.18669,2.68486 -2.23552,4.53927 -0.023,0.87312 -0.13076,1.94468 -0.23949,2.38125 -0.16872,0.67744 -0.0373,1.00697 0.89662,2.24895 2.18833,2.91006 2.52188,3.15313 4.26065,3.10494 2.34333,-0.065 2.4395,0.19691 1.04871,2.85549 -1.25018,2.38981 -3.59431,5.26699 -4.0578,4.98054 -0.16001,-0.0989 -0.20629,-0.0509 -0.10656,0.11042 0.097,0.15688 -0.21207,0.55649 -0.68672,0.88803 -0.47466,0.33154 -0.92254,0.66826 -0.9953,0.74826 -0.0728,0.08 -0.48948,0.31957 -0.92604,0.53238 -0.43657,0.2128 -1.09141,0.57535 -1.45521,0.80565 -1.18998,0.75331 -4.38578,1.75024 -6.50937,2.0306 -1.05202,0.13888 -1.09067,0.11694 -1.25677,-0.71354 z m -14.51781,-19.42896 c 0.27633,-0.27633 -0.30479,-0.67631 -0.9826,-0.67631 -0.84952,0 -1.58894,0.64463 -1.02002,0.88925 0.34505,0.14836 1.79556,-0.006 2.00262,-0.21294 z m -2.59016,-0.87474 c -0.009,-0.52268 -1.92245,-1.40616 -2.91874,-1.34737 -1.26913,0.0749 -1.406,0.48747 -0.1617,0.48747 0.54901,0 1.06685,0.20091 1.36392,0.52917 0.45653,0.50445 1.72341,0.74855 1.71652,0.33073 z m -3.43631,8.79739 c 0,-0.21828 -0.11906,-0.39687 -0.26458,-0.39687 -0.45342,0 -0.28934,-0.99119 0.19843,-1.19874 0.39937,-0.16993 0.37208,-0.22476 -0.19843,-0.39881 -0.63235,-0.19291 -0.63526,-0.20295 -0.0661,-0.22816 0.32742,-0.0145 0.59531,-0.14645 0.59531,-0.2932 0,-0.15816 0.2155,-0.13225 0.52917,0.0636 0.53126,0.33178 0.71329,1.53216 0.36857,2.4305 -0.20422,0.53219 -1.16232,0.55003 -1.16232,0.0216 z m -2.38125,-9.12812 c 0,-0.14552 0.12609,-0.26459 0.2802,-0.26459 0.15411,0 0.20661,0.11907 0.11668,0.26459 -0.0899,0.14552 -0.21603,0.26458 -0.2802,0.26458 -0.0642,0 -0.11668,-0.11906 -0.11668,-0.26458 z"
         id="path21" /><path
         style="fill:#5ab062"
         d="m 176.16289,156.98176 c 0.191,-0.0764 0.4192,-0.067 0.50712,0.0209 0.0879,0.0879 -0.0683,0.15045 -0.34726,0.13896 -0.30823,-0.0127 -0.37092,-0.0754 -0.15986,-0.15985 z m 5.02709,0 c 0.19099,-0.0764 0.4192,-0.067 0.50712,0.0209 0.0879,0.0879 -0.0684,0.15045 -0.34727,0.13896 -0.30822,-0.0127 -0.37092,-0.0754 -0.15985,-0.15985 z m -16.81675,-16.24527 c -0.90906,-0.11577 -1.79664,-0.29937 -1.97241,-0.40801 -0.17578,-0.10863 -0.65988,-0.23477 -1.0758,-0.2803 -1.20207,-0.13159 -1.71225,-0.53557 -1.8515,-1.46606 -0.26628,-1.77931 -0.78242,-4.05406 -1.02104,-4.49991 -0.13569,-0.25356 -0.8713,-0.86055 -1.63467,-1.34887 -0.95702,-0.6122 -1.67347,-1.35943 -2.30757,-2.40671 -0.50578,-0.83537 -1.30656,-1.9964 -1.77951,-2.58007 -0.9379,-1.15749 -0.9635,-1.23155 -0.61554,-1.78122 0.1439,-0.22732 0.12571,-0.55021 -0.0466,-0.82604 -0.21742,-0.34814 -0.1499,-0.66789 0.29206,-1.38299 0.31617,-0.51159 0.77668,-1.09237 1.02334,-1.29063 0.24666,-0.19826 0.12616,0.0675 -0.26778,0.59055 -0.39394,0.52305 -0.71626,1.15404 -0.71626,1.4022 0,0.69719 0.68133,1.82729 1.435,2.38019 0.37492,0.27505 0.68167,0.662 0.68167,0.8599 0,0.1979 0.14883,0.36097 0.33073,0.36238 0.1819,0.001 0.83439,0.40301 1.44996,0.89243 2.00022,1.59029 6.18493,3.26092 8.47191,3.38218 0.61847,0.0328 1.12448,0.13272 1.12448,0.22207 0,0.21025 3.77614,-0.19365 5.07151,-0.54246 0.54802,-0.14756 1.11577,-0.47313 1.26169,-0.72348 0.46435,-0.7967 0.33006,2.83928 -0.15143,4.10004 -0.33087,0.86635 -0.57177,1.13332 -1.02266,1.13332 -0.3244,0 -0.91367,0.25474 -1.30949,0.56609 -0.59445,0.46759 -0.69282,0.70926 -0.56544,1.38906 0.12005,0.64064 0.005,0.99707 -0.52127,1.60875 -0.76065,0.88485 -1.51948,0.99957 -4.28343,0.64759 z m 51.28308,-17.85958 c 0.0127,-0.30822 0.0754,-0.37092 0.15985,-0.15985 0.0764,0.19099 0.067,0.4192 -0.0209,0.50712 -0.0879,0.0879 -0.15045,-0.0684 -0.13896,-0.34727 z m -62.17708,-1.5875 c 0.0127,-0.30822 0.0754,-0.37092 0.15985,-0.15985 0.0764,0.19099 0.067,0.4192 -0.0209,0.50712 -0.0879,0.0879 -0.15045,-0.0683 -0.13896,-0.34727 z m 31.68256,-0.59356 c -0.49942,-0.53454 -1.06729,-1.18298 -1.26192,-1.44097 -0.30399,-0.40294 -0.29586,-0.44681 0.0576,-0.31118 1.15812,0.44442 1.40205,-7.94083 0.24976,-8.58568 -0.33282,-0.18626 -0.23042,-0.34623 0.54763,-0.85554 0.92923,-0.60826 1.51181,-1.45927 1.51181,-2.20837 0,-0.20153 0.35719,-0.62075 0.79375,-0.93161 0.95522,-0.68017 1.07897,-1.7259 0.23592,-1.99347 -0.50615,-0.16065 -0.5438,-0.31548 -0.40641,-1.67148 0.0833,-0.82193 0.15571,-1.52419 0.16095,-1.56057 0.005,-0.0364 0.69528,-0.0661 1.5334,-0.0661 1.2578,0 1.58397,0.0963 1.86822,0.55142 0.67092,1.07433 -0.37719,3.15275 -1.58989,3.15275 -0.2636,0 -0.47927,0.10518 -0.47927,0.23374 0,0.40513 1.2408,0.4908 1.89049,0.13052 0.7144,-0.39617 1.81367,-0.47617 1.81367,-0.13199 0,0.12775 0.19965,0.6933 0.44366,1.25677 0.5328,1.23036 0.59995,1.50128 0.71976,2.90375 0.051,0.59702 0.24318,1.54136 0.42706,2.09852 0.4609,1.39654 0.47738,6.75845 0.027,8.78838 -0.37074,1.67103 -0.63013,2.01065 -0.93295,1.22152 -0.13421,-0.34975 -0.39931,-0.40012 -1.39068,-0.26424 -0.67367,0.0923 -1.35593,0.26979 -1.51613,0.39433 -0.1602,0.12453 -1.0797,0.23431 -2.04334,0.24394 -1.68615,0.0168 -1.78622,-0.0191 -2.66011,-0.95439 z m -34.69477,-1.24484 c -0.97316,-0.85614 -0.62489,-0.84875 0.39374,0.008 0.43235,0.3638 0.68766,0.65769 0.56736,0.65309 -0.12031,-0.005 -0.5528,-0.30225 -0.9611,-0.66146 z m 2.36398,0.26645 c -0.10501,-0.27363 -0.35582,-0.35292 -0.77979,-0.24651 -0.47679,0.11967 -0.72913,-0.002 -1.06414,-0.51336 -0.61432,-0.93757 -0.54868,-1.16403 0.0988,-0.34088 0.44277,0.56289 0.71197,0.66594 1.52136,0.58234 0.54086,-0.0559 0.84125,-0.0422 0.66752,0.0303 -0.17372,0.0725 -0.25028,0.30279 -0.17013,0.51167 0.0802,0.20888 0.0862,0.37978 0.0135,0.37978 -0.0728,0 -0.20195,-0.18151 -0.28708,-0.40337 z m 0.89192,-0.22978 c 0,-0.0572 0.18478,-0.17489 0.41062,-0.26155 0.23546,-0.0904 0.34166,-0.046 0.24897,0.10398 -0.15538,0.25141 -0.65959,0.37186 -0.65959,0.15757 z m -4.49268,-1.61023 c -0.33047,-0.35177 -0.94294,-0.71472 -1.36105,-0.80655 -0.41811,-0.0918 -0.93816,-0.42105 -1.15567,-0.73159 -0.27775,-0.39655 -0.63289,-0.54654 -1.19296,-0.50386 -0.62296,0.0475 -2.59344,-0.67573 -3.13052,-1.14894 -0.19849,-0.1749 0.86538,-4.64098 1.60473,-6.73651 2.2357,-6.33669 6.78731,-12.8078 11.61174,-16.508634 l 1.68829,-1.295093 -1.79805,1.65781 c -0.98893,0.911796 -1.72659,1.729265 -1.63926,1.816598 0.0873,0.08733 0.24161,0.04296 0.34284,-0.09861 0.23868,-0.333801 4.3405,-2.470449 4.98313,-2.595732 0.27092,-0.05282 0.77942,-0.212562 1.12999,-0.35499 0.65968,-0.268013 1.87614,-0.162375 1.87614,0.162924 0,0.101796 -0.76645,0.518783 -1.70321,0.926636 -1.83345,0.798258 -2.87025,1.69435 -2.93213,2.534186 -0.0284,0.385423 0.12601,0.525737 0.57851,0.525737 0.33949,0 0.61724,0.116794 0.61724,0.259543 0,0.142748 0.308,0.336845 0.68445,0.431326 0.61706,0.154875 0.66765,0.261267 0.51389,1.080855 -0.16039,0.854979 -0.13814,0.891733 0.3739,0.617698 0.29943,-0.160255 0.54443,-0.457908 0.54443,-0.661451 0,-0.203543 0.50515,-0.70934 1.12256,-1.123995 0.6174,-0.414654 1.16271,-0.962452 1.2118,-1.217329 0.0491,-0.254878 0.37737,-0.774308 0.72952,-1.15429 0.35216,-0.379982 0.64029,-0.792554 0.64029,-0.916825 0,-0.124272 0.34261,-0.225948 0.76135,-0.225948 0.86632,0 1.52715,0.64143 1.40481,1.363563 -0.0922,0.544277 0.4696,0.657343 0.93814,0.188805 0.50946,-0.509464 1.12903,-0.04879 1.12903,0.839477 0,0.451524 0.18721,1.008158 0.41601,1.236964 0.43585,0.435848 0.31299,1.709409 -0.18203,1.887025 -0.14719,0.05281 -0.11075,0.270746 0.0857,0.512558 0.29445,0.362444 0.27237,0.394628 -0.15952,0.232475 -0.32016,-0.120208 -0.70254,-0.01861 -1.05833,0.281191 -0.55337,0.466305 -0.55388,0.465647 -0.0768,-0.09964 0.31893,-0.377897 0.38414,-0.628448 0.19412,-0.745887 -0.15737,-0.09726 -0.22367,-0.277904 -0.14733,-0.401425 0.14842,-0.240157 -3.16992,-0.07652 -3.83434,0.189087 -0.47901,0.191485 -0.41119,0.173331 -1.71979,0.460359 -1.35576,0.297373 -1.16346,0.235747 -2.34742,0.752257 -0.56347,0.24582 -1.10197,0.446946 -1.19666,0.446946 -0.0947,0 -0.79452,0.409874 -1.55518,0.910832 -0.76067,0.500957 -1.38303,0.871147 -1.38303,0.822637 0,-0.0485 -0.66186,0.58341 -1.47081,1.40427 -1.55269,1.57557 -3.66061,4.52565 -3.94945,5.52736 -0.14797,0.51318 -0.0688,0.59955 0.57378,0.62601 0.52767,0.0217 0.59085,0.0644 0.21627,0.14593 -0.29104,0.0634 -0.78847,0.24368 -1.10539,0.40067 -0.31692,0.15699 -0.9043,0.22273 -1.30529,0.14607 -0.40704,-0.0778 -1.12186,0.048 -1.61837,0.28471 -1.49397,0.71243 -2.45987,3.71429 -1.58161,4.91539 0.535,0.73165 2.07716,0.45638 2.51624,-0.44914 0.18984,-0.3915 0.448,-0.71183 0.57368,-0.71183 0.12567,0 0.4466,-0.0797 0.71316,-0.17715 0.46309,-0.16927 0.46405,-0.15362 0.0216,0.35156 -0.25466,0.2908 -0.45923,0.69794 -0.4546,0.90476 0.006,0.2657 0.1224,0.22533 0.39687,-0.13755 0.29342,-0.38794 0.38846,-0.41649 0.38846,-0.11671 0,0.21828 -0.17481,0.62799 -0.38846,0.91046 -0.52128,0.68919 -0.50191,1.111 0.0577,1.25725 0.44097,0.11524 0.44097,0.12246 0,0.15169 -0.66986,0.0444 -0.56838,0.75207 0.21151,1.47484 0.37099,0.34383 0.56689,0.69166 0.43533,0.77297 -0.13155,0.0813 -0.50957,-0.13999 -0.84004,-0.49175 z m 1.60491,-0.40245 c -0.008,-0.21828 0.10087,-0.57547 0.24194,-0.79375 0.31256,-0.48365 0.31256,-0.0659 0,0.66146 -0.14994,0.34892 -0.23235,0.39398 -0.24194,0.13229 z m 64.82116,-0.15434 c 0.0127,-0.30822 0.0754,-0.37092 0.15985,-0.15985 0.0764,0.19099 0.067,0.4192 -0.0209,0.50712 -0.0879,0.0879 -0.15045,-0.0683 -0.13896,-0.34727 z m -64.05006,-4.84797 c 0,-0.1319 0.23813,-0.17754 0.52917,-0.10144 0.29104,0.0761 0.52917,0.18403 0.52917,0.23982 0,0.0558 -0.23813,0.10143 -0.52917,0.10143 -0.29104,0 -0.52917,-0.10791 -0.52917,-0.23981 z m 2.19235,-3.06748 c 0.002,-0.7276 0.0534,-0.99386 0.11418,-0.59168 0.0608,0.40219 0.0592,0.9975 -0.004,1.32292 -0.0628,0.32542 -0.11256,-0.004 -0.11057,-0.73124 z m -1.39329,-0.52277 c -0.20869,-0.25146 -0.22876,-0.40327 -0.0533,-0.40327 0.31977,0 0.69257,0.50197 0.50909,0.68545 -0.0666,0.0666 -0.27169,-0.0604 -0.45577,-0.28218 z m 1.58219,-1.03233 c 0,-0.055 0.20836,-0.26331 0.46302,-0.46302 0.41965,-0.32911 0.42901,-0.31975 0.0999,0.0999 -0.34564,0.44073 -0.56292,0.58089 -0.56292,0.36313 z M 161.26355,101.6 c 0.26338,-0.29104 0.53842,-0.52917 0.61118,-0.52917 0.0728,0 -0.0832,0.23813 -0.3466,0.52917 -0.26339,0.29104 -0.53842,0.52917 -0.61118,0.52917 -0.0728,0 0.0832,-0.23813 0.3466,-0.52917 z m 3.23784,-2.089084 c -0.0752,-0.287415 0.008,-0.578091 0.18484,-0.645946 0.18828,-0.07225 0.30631,0.0829 0.28484,0.374398 -0.0535,0.726031 -0.31178,0.875362 -0.46968,0.271548 z m -0.70157,-1.160384 c 0.3513,-0.333506 0.75779,-0.620333 0.90331,-0.637393 1.81382,-0.212641 3.04271,-0.231163 3.04271,-0.04586 0,0.239571 -0.94984,0.359642 -2.18282,0.275937 -0.40018,-0.02717 -0.7276,0.05847 -0.7276,0.190311 0,0.131839 -0.37672,0.371033 -0.83716,0.531543 l -0.83716,0.291835 z m 42.94692,-2.372927 -0.50403,-0.595312 0.59531,0.504028 c 0.32743,0.277215 0.59532,0.545106 0.59532,0.595312 0,0.211734 -0.21294,0.05542 -0.6866,-0.504028 z M 175.073,92.41889 c -0.58066,-0.150489 -0.9957,-1.141885 -0.79667,-1.902994 0.17499,-0.669169 0.0965,-0.66409 1.82792,-0.118312 l 1.39346,0.43925 -0.67401,0.883667 c -0.66792,0.875696 -0.82491,0.938322 -1.7507,0.698389 z m 27.70499,-0.410035 -0.50403,-0.595312 0.59531,0.504028 c 0.55945,0.473662 0.71577,0.686597 0.50403,0.686597 -0.0502,0 -0.31809,-0.267891 -0.59531,-0.595313 z m -34.9292,-0.193068 c -0.30718,-0.124119 -0.63571,-0.426857 -0.73007,-0.672751 -0.12643,-0.32947 -0.35075,-0.402107 -0.85273,-0.276119 -0.4414,0.110785 -0.62129,0.0741 -0.51108,-0.104228 0.0935,-0.151353 0.40354,-0.275188 0.68888,-0.275188 0.28535,0 1.01045,-0.310354 1.61133,-0.689676 0.8396,-0.530019 1.30535,-0.655139 2.0119,-0.540482 1.18948,0.193026 1.36645,0.394421 0.74554,0.848439 -0.43725,0.319729 -0.54617,0.311522 -0.81909,-0.06171 -0.23095,-0.315842 -0.36683,-0.34626 -0.51023,-0.114225 -0.1075,0.17394 -0.0647,0.473836 0.0952,0.666435 0.37749,0.454857 -0.25787,1.029569 -0.876,0.792371 -0.32082,-0.12311 -0.39091,-0.05556 -0.26981,0.260018 0.18371,0.478727 0.18585,0.478112 -0.58381,0.16712 z m -4.97261,-0.843983 c 0.36677,-0.417699 0.39557,-0.534813 0.10576,-0.430027 -0.21904,0.0792 -0.55116,-0.01967 -0.73803,-0.21972 -0.27843,-0.298055 -0.26623,-0.369694 0.0675,-0.396796 0.22402,-0.01819 0.55613,-0.04889 0.73803,-0.06823 0.1819,-0.01934 0.47956,0.24728 0.66146,0.592483 0.42529,0.807102 0.41639,0.921225 -0.0577,0.73931 -0.21362,-0.08197 -0.45877,-0.03518 -0.54478,0.103984 -0.086,0.139166 -0.28687,0.253028 -0.44636,0.253028 -0.15948,0 -0.0632,-0.258314 0.21405,-0.57403 z m -5.12466,-1.16659 c 0.25119,-0.262262 0.51367,-0.419889 0.58328,-0.350282 0.0696,0.06961 -0.13592,0.284186 -0.45672,0.47684 -0.5573,0.334677 -0.56294,0.329038 -0.12656,-0.126558 z m 6.24054,-0.02762 c 0.191,-0.07643 0.4192,-0.06703 0.50712,0.02089 0.0879,0.08792 -0.0684,0.150453 -0.34727,0.138964 -0.30822,-0.0127 -0.37092,-0.07539 -0.15985,-0.159852 z M 158.75,89.0606 c 0,-0.05719 0.18478,-0.17489 0.41062,-0.261553 0.23546,-0.09035 0.34166,-0.046 0.24897,0.103985 C 159.25421,89.15444 158.75,89.27489 158.75,89.0606 Z m 15.29623,-5.633006 c 0.19099,-0.07643 0.4192,-0.06703 0.50712,0.02089 0.0879,0.08792 -0.0683,0.150453 -0.34727,0.138964 -0.30822,-0.0127 -0.37092,-0.07539 -0.15985,-0.159852 z m 2.76159,-0.266227 c 0.25466,-0.06655 0.67138,-0.06655 0.92604,0 0.25466,0.06655 0.0463,0.121 -0.46302,0.121 -0.50933,0 -0.71768,-0.05445 -0.46302,-0.121 z m 3.43958,0 c 0.25466,-0.06655 0.67138,-0.06655 0.92604,0 0.25466,0.06655 0.0463,0.121 -0.46302,0.121 -0.50932,0 -0.71768,-0.05445 -0.46302,-0.121 z"
         id="path20" /><path
         style="fill:#156c95"
         d="m 169.39849,142.39514 c -0.84583,-0.0815 -0.85848,-0.10222 -0.72278,-1.18222 0.076,-0.60458 0.255,-1.21613 0.39787,-1.35899 0.14287,-0.14287 0.25976,-0.75804 0.25976,-1.36704 0,-1.18679 0.5798,-1.81691 1.8435,-2.00351 0.48345,-0.0714 0.7148,-0.40022 1.08758,-1.54588 0.29159,-0.89616 0.48022,-1.21329 0.491,-0.82549 0.0163,0.58582 0.0959,0.61943 1.14198,0.48203 2.15914,-0.2836 5.34647,-1.27409 6.54844,-2.035 0.3638,-0.2303 1.01864,-0.59285 1.45521,-0.80565 0.43656,-0.21281 0.85328,-0.45238 0.92604,-0.53238 0.0728,-0.08 0.52064,-0.41672 0.9953,-0.74826 0.47465,-0.33154 0.78368,-0.73115 0.68672,-0.88803 -0.0997,-0.16136 -0.0534,-0.20931 0.10656,-0.11042 0.73913,0.4568 5.3781,-6.37048 4.99931,-7.35761 -0.0873,-0.22742 0.19167,-0.52125 0.74338,-0.78306 1.16833,-0.55441 1.81256,-0.52861 2.3771,0.0952 0.25596,0.28284 0.78043,0.55073 1.16549,0.59531 0.67603,0.0783 0.70049,0.14052 0.71155,1.81034 0.008,1.18695 0.15308,1.93147 0.46302,2.37398 0.51736,0.73864 0.62396,2.90821 0.14289,2.90821 -0.16978,0 -0.2333,0.0754 -0.14116,0.16752 0.29718,0.29718 -1.36075,2.32278 -3.8844,4.74581 -2.76122,2.65114 -3.17534,2.99932 -4.19781,3.52951 -0.39569,0.20517 -0.95726,0.59461 -1.24793,0.86541 -0.29067,0.2708 -0.58998,0.49063 -0.66512,0.4885 -0.0751,-0.002 -0.88113,0.35679 -1.79108,0.79759 -1.67688,0.81232 -5.05551,1.96622 -6.61926,2.26066 -1.21746,0.22923 -6.24901,0.52219 -7.27316,0.42347 z m -11.64067,-3.08189 c -0.61847,-0.35249 -1.12631,-0.55851 -1.12853,-0.4578 -0.002,0.1007 -0.0915,0.0601 -0.19844,-0.0902 -0.10691,-0.1503 -0.7897,-0.65494 -1.5173,-1.12142 -2.79095,-1.78934 -6.04984,-5.01601 -7.6365,-7.56099 -1.19123,-1.91071 -3.41317,-6.48161 -3.44744,-7.09196 -0.0157,-0.27977 -0.19474,-0.61126 -0.39785,-0.73663 -0.2031,-0.12538 -0.3017,-0.40406 -0.21911,-0.61929 0.0826,-0.21524 0.0555,-0.49515 -0.0602,-0.62202 -0.11572,-0.12687 -0.28838,-1.40529 -0.38369,-2.84093 l -0.17329,-2.61025 0.7351,0.20761 c 0.4043,0.11418 1.19749,0.18342 1.76265,0.15386 0.63013,-0.033 1.20599,0.10773 1.4889,0.36375 0.25373,0.22963 0.97441,0.68016 1.60151,1.00119 0.62709,0.32102 1.26678,0.81012 1.42152,1.08689 0.50653,0.90597 1.80344,2.01015 2.3711,2.01874 0.51857,0.008 0.52484,0.0321 0.093,0.3599 -0.49735,0.37755 -0.63434,1.21919 -0.19843,1.21919 0.14552,0 0.26458,0.16986 0.26458,0.37747 0,0.20761 0.19986,0.41597 0.44413,0.46302 0.40786,0.0786 0.40528,0.1244 -0.0316,0.56123 -0.31426,0.31426 -0.50297,0.96654 -0.55607,1.92212 -0.0651,1.17141 0.0303,1.58403 0.50188,2.17015 0.72356,0.89935 2.55204,3.70331 2.55204,3.91354 0,0.28209 0.64563,0.79959 1.81187,1.4523 1.33237,0.74568 1.89229,1.66208 1.89229,3.09703 0,0.5602 0.0921,1.13166 0.20469,1.26991 0.11257,0.13824 0.14234,0.81455 0.0661,1.50291 l -0.13853,1.25156 z m -15.8487,-19.19242 c 0,-1.23692 0.0456,-1.74294 0.10128,-1.12447 0.0557,0.61846 0.0557,1.63049 0,2.24895 -0.0557,0.61847 -0.10128,0.11245 -0.10128,-1.12448 z m 9.31411,-1.3076 c -0.38375,-0.42405 -0.41383,-0.64371 -0.17208,-1.25677 l 0.29295,-0.74292 -0.1027,0.75841 c -0.0672,0.49611 0.0696,0.93076 0.39566,1.25677 0.2741,0.2741 0.39775,0.49836 0.27478,0.49836 -0.12296,0 -0.43284,-0.23123 -0.68861,-0.51385 z m -0.40853,-2.91877 c -0.21707,-0.13724 -0.65057,-0.1853 -0.96332,-0.1068 -0.84517,0.21212 -0.90131,-0.15872 -0.23276,-1.53763 0.45547,-0.93942 0.51901,-1.27224 0.26175,-1.37096 -0.57482,-0.22058 -1.40489,0.12339 -1.81754,0.75318 -0.43986,0.67131 -1.4789,0.97181 -2.11989,0.61309 -0.48034,-0.26881 -0.60898,-2.70903 -0.15752,-2.98805 0.14552,-0.0899 0.26458,-0.39637 0.26458,-0.68096 0,-0.83234 1.50639,-1.60369 2.95481,-1.51302 0.69986,0.0438 1.21578,-0.0346 1.19063,-0.18099 -0.0654,-0.38028 1.15748,-0.49814 1.50748,-0.14529 0.22461,0.22644 0.19034,0.26085 -0.13605,0.13665 -0.23994,-0.0913 -0.50428,-0.0559 -0.58742,0.0786 -0.2234,0.36146 -0.46893,2.32002 -0.55256,4.40759 -0.0641,1.59993 -10e-4,1.89864 0.48672,2.3063 0.60261,0.50364 0.54541,0.63565 -0.0989,0.2283 z m 46.7039,-8.99124 c -0.086,-0.13916 -0.33116,-0.18596 -0.54478,-0.10398 -0.21362,0.082 -0.3884,0.0172 -0.3884,-0.14385 0,-0.16109 -0.29766,-0.29289 -0.66146,-0.29289 -0.59829,0 -0.66146,-0.10387 -0.66146,-1.08778 0,-1.08115 -0.005,-1.08688 -0.85989,-0.94003 -0.47294,0.0813 -1.54608,0.22749 -2.38475,0.32495 -0.83867,0.0975 -1.58983,0.28235 -1.66926,0.41087 -0.19974,0.32319 -1.96526,0.29541 -1.96526,-0.0309 0,-0.14552 0.18278,-0.26458 0.40618,-0.26458 0.59498,0 1.71048,-0.79612 1.71048,-1.22075 0,-0.20138 0.46232,-0.84253 1.02738,-1.42478 1.15349,-1.18859 2.14964,-1.37498 3.1832,-0.59561 1.36583,1.02992 2.25301,1.90315 1.94099,1.91047 -0.49015,0.0115 -0.40134,1.24696 0.10357,1.44071 0.37988,0.14578 0.38817,0.10943 0.0661,-0.2901 -0.29615,-0.36742 -0.22925,-0.35567 0.34204,0.0601 0.39061,0.28427 0.77705,0.77368 0.85877,1.08758 0.0817,0.3139 0.22135,0.76039 0.3103,0.99219 0.17739,0.46226 -0.54037,0.61081 -0.81379,0.16842 z m -2.78526,-4.37718 c 0,-0.3638 -0.11907,-0.66146 -0.26459,-0.66146 -0.14552,0 -0.26458,0.29766 -0.26458,0.66146 0,0.3638 0.11906,0.66146 0.26458,0.66146 0.14552,0 0.26459,-0.29766 0.26459,-0.66146 z m -8.20209,-0.21409 c 0,-0.38454 -0.23236,-1.08126 -0.51637,-1.54827 -0.49355,-0.811571 -2.51277,-2.603262 -2.93386,-2.603262 -0.42969,0 -2.8581,-1.806696 -2.68566,-1.998098 0.10052,-0.111584 -0.0303,-0.12631 -0.29071,-0.03272 -0.40565,0.14578 -1.33746,-0.176992 -1.77548,-0.615013 -0.41737,-0.417367 -1.35834,-0.763549 -1.70933,-0.62886 -0.22887,0.08783 -0.40734,0.01558 -0.40734,-0.16489 0,-0.184908 -0.17853,-0.252689 -0.42075,-0.15974 -0.23141,0.0888 -0.55883,0.07479 -0.7276,-0.03114 -0.47947,-0.300939 -1.45539,-0.416793 -3.74644,-0.44475 -2.03221,-0.0248 -2.11583,-0.0021 -2.09566,0.569484 0.0116,0.327421 -0.0777,0.595312 -0.19843,0.595312 -0.1207,0 -0.21945,-0.469223 -0.21945,-1.042718 0,-1.216394 -0.25604,-1.469314 -0.95321,-0.941596 -0.74212,0.56174 -1.25149,0.497454 -1.08558,-0.137007 0.32216,-1.231909 -1.92453,-1.812604 -2.56473,-0.6629 -0.1602,0.28769 -0.43474,0.644877 -0.61009,0.79375 -0.17535,0.148874 -0.44439,0.608878 -0.59787,1.022231 -0.16711,0.450065 -0.59382,0.870366 -1.06372,1.047733 -0.47492,0.179261 -0.88626,0.587596 -1.04202,1.034386 -0.15432,0.44268 -0.44821,0.736582 -0.73412,0.734153 -0.26735,-0.0023 -0.36056,-0.08944 -0.2122,-0.198438 0.14552,-0.106912 0.27266,-0.449437 0.28253,-0.761166 0.0136,-0.430844 -0.28779,-0.700274 -1.25678,-1.123377 -1.6592,-0.724484 -1.67745,-1.227682 -0.0841,-2.318143 0.43656,-0.298771 1.37246,-0.760723 2.07978,-1.026559 1.18569,-0.445628 1.305,-0.449423 1.5293,-0.04864 0.1982,0.354168 0.36181,0.380691 0.88313,0.143162 0.35192,-0.160347 0.67577,-0.542003 0.71965,-0.848124 0.0439,-0.306122 0.40627,-0.712566 0.80528,-0.90321 0.39901,-0.190643 0.85141,-0.581946 1.00534,-0.869561 0.26938,-0.503331 0.30887,-0.505802 1.05354,-0.06592 0.7236,0.427437 0.74578,0.487847 0.34272,0.933229 -0.23703,0.261914 -0.71017,0.476208 -1.05142,0.476208 -0.34125,0 -0.62045,0.119063 -0.62045,0.264583 0,0.145521 0.24295,0.264584 0.53988,0.264584 0.29694,0 0.87137,0.245083 1.27653,0.544629 0.63272,0.46779 0.8358,0.499454 1.43941,0.224431 0.38652,-0.176109 0.7726,-0.540255 0.85797,-0.809213 0.0854,-0.268958 0.37073,-0.489014 0.63414,-0.489014 0.79751,0 1.16664,-0.656797 0.77117,-1.37215 -0.18615,-0.336724 -0.31024,-0.752407 -0.27576,-0.923741 0.0345,-0.171334 -0.25082,-0.625034 -0.63401,-1.008223 -0.38319,-0.383189 -0.62789,-0.765524 -0.54378,-0.849635 0.14036,-0.140355 1.8286,-0.140862 4.13653,-0.0012 l 0.92605,0.05602 -0.084,1.32188 c -0.0462,0.727034 -0.19503,1.43499 -0.33073,1.573235 -0.43633,0.44452 -0.28673,2.410395 0.2163,2.842422 0.95686,0.821803 1.28333,0.734092 2.73362,-0.73444 1.10673,-1.120648 1.594,-1.433295 2.23385,-1.433295 0.4501,0 1.04948,-0.174807 1.33196,-0.38846 0.69585,-0.526315 2.17125,-0.505214 2.7153,0.03883 0.24427,0.244267 0.38459,0.478532 0.31183,0.520589 -0.0728,0.04206 0.0874,0.333079 0.35597,0.646715 0.40864,0.477255 0.67382,0.544814 1.62614,0.414285 0.98292,-0.134724 1.28901,-0.04649 2.24758,0.647899 1.01654,0.736378 1.0755,0.841652 0.70235,1.253983 -0.25613,0.283018 -0.32386,0.585209 -0.18245,0.814014 0.15481,0.250493 -0.0143,0.565141 -0.54255,1.009665 -0.47273,0.397776 -0.76746,0.901624 -0.76746,1.312014 0,0.677616 -0.006,0.676822 1.23648,0.166853 0.17074,-0.07009 0.44282,0.119929 0.60462,0.422257 0.1727,0.322684 0.55706,0.549688 0.93072,0.549688 0.3501,0 0.71012,0.119062 0.80006,0.264583 0.0899,0.145521 -0.0671,0.264583 -0.34886,0.264583 -0.28182,0 -0.65785,0.175275 -0.83564,0.389499 -0.25849,0.311459 -0.23848,0.474281 0.0999,0.812649 0.23273,0.232732 0.42133,0.623005 0.4191,0.867272 -0.008,0.864963 -0.42616,1.151093 -1.61281,1.103283 -1.70653,-0.0687 -1.70468,-0.0696 -1.77463,0.84833 -0.08,1.05062 -0.31268,1.34455 -0.31268,0.39508 z m 5.4213,-6.801682 c -0.0914,-0.147894 -0.30679,-0.188337 -0.47864,-0.08987 -0.17185,0.09847 -0.22418,0.0816 -0.11631,-0.03749 0.10788,-0.119082 0.052,-0.406061 -0.12428,-0.637732 -0.17624,-0.23167 0.003,-0.132574 0.39917,0.220214 0.39578,0.352789 0.7196,0.680211 0.7196,0.727605 0,0.183646 -0.24132,0.07328 -0.39954,-0.182729 z m -28.00656,-7.007142 c 0.0838,-0.218281 0.25862,-0.396875 0.38857,-0.396875 0.12995,0 0.23628,0.178594 0.23628,0.396875 0,0.218281 -0.17486,0.396875 -0.38857,0.396875 -0.2367,0 -0.32905,-0.155122 -0.23628,-0.396875 z"
         id="path19" /><path
         style="fill:#1c9157"
         d="m 166.5405,152.56571 c -1.40684,-0.6551 -3.34338,-2.63652 -3.2551,-3.33054 0.0285,-0.22387 -0.0765,-0.7047 -0.2333,-1.0685 -0.1568,-0.3638 -0.42946,-1.04841 -0.6059,-1.52136 -0.17645,-0.47294 -0.43091,-0.85989 -0.56547,-0.85989 -0.33143,0 -1.53742,-2.63301 -1.54064,-3.36364 -0.001,-0.32204 -0.24672,-1.2049 -0.54511,-1.96192 -0.29839,-0.75702 -0.49482,-1.68416 -0.43652,-2.06032 0.0915,-0.59063 0.11141,-0.5679 0.14565,0.16667 0.0432,0.92613 0.55598,1.34349 1.82091,1.48197 0.41592,0.0455 0.8913,0.16628 1.05641,0.26832 0.35599,0.22002 3.85654,0.65212 4.91109,0.60622 0.40552,-0.0177 0.84553,-0.20724 0.9778,-0.42131 0.46703,-0.75583 0.52243,-0.087 0.085,1.02656 -0.39309,1.00069 -0.52507,1.11607 -1.16873,1.0216 -0.68292,-0.10023 -0.70338,-0.0748 -0.34777,0.43292 0.60812,0.86822 0.46615,1.41857 -0.41593,1.6123 -0.56363,0.1238 -0.79375,0.32986 -0.79375,0.71079 0,0.36814 -0.12452,0.48867 -0.39687,0.38416 -0.43192,-0.16575 -0.48262,0.18678 -0.14694,1.02172 0.1193,0.29672 0.0957,0.75382 -0.0538,1.0406 -0.21037,0.40363 -0.14758,0.60779 0.29783,0.96846 0.3808,0.30835 0.56438,0.75704 0.56438,1.37938 0,0.7246 0.20053,1.09843 0.93525,1.74353 0.51439,0.45163 1.05017,0.82115 1.19063,0.82115 0.14045,0 0.25537,0.11907 0.25537,0.26459 0,0.38257 -0.24071,0.33213 -1.7345,-0.36346 z m 32.22702,-10.431 c -0.15931,-0.41516 0.26752,-1.29398 0.56849,-1.17048 0.0987,0.0405 0.58837,-0.46221 1.08826,-1.11709 0.49989,-0.65489 1.15444,-1.43626 1.45455,-1.73638 0.30012,-0.30012 0.97819,-1.22617 1.50681,-2.0579 0.52862,-0.83173 1.06527,-1.55358 1.19255,-1.60411 0.12727,-0.0505 0.0905,-0.26162 -0.0816,-0.46908 -0.25704,-0.30972 -0.22352,-0.34491 0.18739,-0.19669 0.27525,0.0993 0.413,0.084 0.30612,-0.0339 -0.10687,-0.11794 -0.0415,-0.34527 0.14523,-0.50518 0.48858,-0.41835 1.32079,-2.98823 1.08909,-3.36312 -0.11608,-0.18783 -0.0837,-0.24744 0.0796,-0.14653 0.26353,0.16287 1.58982,-3.50309 1.76954,-4.89113 0.0442,-0.34167 0.15874,-0.91887 0.25444,-1.28267 0.0957,-0.3638 0.27939,-2.0094 0.40821,-3.65689 0.12882,-1.64748 0.29883,-3.06004 0.3778,-3.13902 0.23262,-0.23261 1.41404,0.8192 1.30102,1.15829 -0.17123,0.51368 0.84894,0.89294 1.68861,0.62775 1.77651,-0.56108 2.20904,-0.57841 2.20633,-0.0884 -0.007,1.1825 -1.42725,3.44735 -3.28282,5.23331 -2.49053,2.39713 -2.9068,3.17604 -2.50442,4.68624 0.16586,0.62251 0.35571,1.80341 0.4219,2.62422 0.11119,1.37889 0.067,1.52979 -0.58051,1.98438 -1.98726,1.39506 -2.33045,1.85174 -2.14289,2.85152 0.1534,0.81769 0.077,1.04421 -0.54713,1.62265 -0.39898,0.36976 -0.76403,0.92535 -0.81124,1.23464 -0.10018,0.65649 -1.7141,2.70103 -2.58,3.26838 -0.85067,0.55738 -3.32049,0.67487 -3.51529,0.16722 z m -29.65699,-4.02221 c 0,-0.3638 0.06,-0.51263 0.13345,-0.33073 0.0734,0.1819 0.0734,0.47956 0,0.66146 -0.0734,0.1819 -0.13345,0.0331 -0.13345,-0.33073 z m 40.911,-1.3311 c -0.065,-0.44314 0.0366,-1.00954 0.22586,-1.25866 0.18927,-0.24912 0.3479,-0.90238 0.35253,-1.45168 0.007,-0.78915 0.13381,-1.04641 0.60594,-1.22592 0.32863,-0.12494 0.92395,-0.6212 1.32291,-1.10279 l 0.7254,-0.87561 v 0.721 c 0,0.39655 -0.36522,1.66804 -0.81159,2.82553 -0.44638,1.15749 -0.73701,2.22521 -0.64584,2.37271 0.0912,0.1475 0.0326,0.26819 -0.13007,0.26819 -0.1627,0 -0.23749,0.0944 -0.16621,0.2097 0.0713,0.11533 -0.20571,0.23525 -0.61554,0.26647 -0.64444,0.0491 -0.76111,-0.0521 -0.86339,-0.74894 z m -51.22975,-0.78557 c 0,-0.3638 0.0601,-0.51263 0.13345,-0.33072 0.0734,0.1819 0.0734,0.47955 0,0.66145 -0.0734,0.1819 -0.13345,0.0331 -0.13345,-0.33073 z m 37.39855,-3.42645 c 0.0846,-0.64763 0.27109,-1.31893 0.41455,-1.49179 0.55973,-0.67442 -0.4137,-3.91485 -1.57076,-5.22888 -0.29857,-0.33906 -0.43159,-0.99055 -0.4322,-2.11666 -8.4e-4,-1.5613 -0.029,-1.6301 -0.6995,-1.70776 l -0.69863,-0.0809 0.4169,-1.50657 c 0.52339,-1.89142 0.56493,-7.65247 0.066,-9.15233 -0.18867,-0.56715 -0.38476,-1.51965 -0.43576,-2.11667 -0.11981,-1.40247 -0.18696,-1.67339 -0.71976,-2.90375 -0.66727,-1.54087 -0.59981,-1.67095 0.94541,-1.82281 0.76398,-0.0751 1.47836,-0.0832 1.5875,-0.0181 0.10914,0.0652 0.19843,0.52338 0.19843,1.01827 0,0.82054 0.0932,0.92774 1.05834,1.21689 0.58208,0.1744 1.05833,0.39819 1.05833,0.49732 0,0.22377 1.22209,0.79434 1.70138,0.79434 0.19446,0 0.41817,-0.24703 0.49713,-0.54896 0.12124,-0.46364 0.22836,-0.50358 0.68919,-0.25695 0.3001,0.16061 0.60847,0.616 0.68527,1.01199 0.0768,0.39598 0.26223,1.24801 0.41207,1.89339 0.80627,3.4726 0.54952,8.8016 -0.64523,13.39238 -0.22919,0.88067 -0.45944,1.83317 -0.51166,2.11667 -0.0522,0.28349 -0.25143,0.87263 -0.44268,1.30919 -1.26419,2.88567 -1.85033,4.08407 -2.41037,4.9281 -1.39283,2.09911 -1.33167,2.05847 -1.16394,0.77357 z m 14.55506,-15.42511 c -0.061,-0.1819 -0.23606,-0.82041 -0.389,-1.41891 -0.15294,-0.5985 -0.57553,-1.52652 -0.9391,-2.06227 -0.36357,-0.53575 -0.66104,-1.26646 -0.66104,-1.6238 0,-0.35734 -0.10273,-0.64971 -0.2283,-0.64971 -0.12557,0 -0.21865,-0.32742 -0.20683,-0.7276 0.0141,-0.47832 -0.10024,-0.70118 -0.3338,-0.65048 -0.24874,0.054 -0.31674,-0.12452 -0.22674,-0.59531 0.0707,-0.36984 0.0515,-0.67244 -0.0426,-0.67244 -0.0941,0 -0.39005,-0.98226 -0.65757,-2.18281 -0.51065,-2.29168 -0.82816,-2.95077 -1.28539,-2.66819 -0.16074,0.0993 -0.19624,0.042 -0.0852,-0.13757 0.24621,-0.39837 -0.0733,-1.41439 -0.38436,-1.22216 -0.13078,0.0808 -0.31885,-0.17607 -0.41794,-0.57088 -0.25765,-1.02652 -1.85892,-3.781524 -2.66159,-4.579268 -0.37502,-0.372714 -0.85805,-0.944531 -1.07341,-1.270703 -0.21536,-0.326173 -0.47776,-0.53977 -0.58311,-0.47466 -0.21782,0.134615 -0.26661,-0.09015 -0.34259,-1.578133 -0.0496,-0.970754 0.006,-1.065261 0.66586,-1.142053 1.18068,-0.137306 0.8155,-0.577739 -0.47902,-0.577739 -1.2181,0 -1.70253,-0.408795 -1.33255,-1.124479 0.83179,-1.608981 0.63008,-1.633191 3.1388,0.376719 5.0287,4.028829 9.32296,10.163696 11.54292,16.490466 l 0.55703,1.5875 -0.6524,-0.7276 c -0.69314,-0.77303 -1.47154,-0.96685 -1.47154,-0.36641 0,0.58451 1.86755,2.8138 2.35722,2.8138 0.1323,0 0.38661,0.81726 0.56511,1.81614 0.2997,1.67697 0.28617,1.85437 -0.17657,2.3151 -0.27562,0.27444 -1.03594,0.71955 -1.68959,0.98915 -0.65366,0.2696 -1.39521,0.59703 -1.6479,0.72761 -0.60648,0.31342 -0.72669,0.30035 -0.85872,-0.0933 z m -67.75367,-1.93282 c -0.48427,-0.38798 -0.47583,-0.39349 0.14787,-0.0965 0.8099,0.38572 0.96,0.50793 0.62383,0.50793 -0.14196,0 -0.48923,-0.18516 -0.7717,-0.41147 z m 2.66328,-0.90842 c -0.0927,-0.14998 0.0135,-0.19434 0.24897,-0.10398 0.45837,0.17589 0.54223,0.36553 0.16165,0.36553 -0.13693,0 -0.32171,-0.11769 -0.41062,-0.26155 z m 1.71792,0.16166 c 0,-0.0549 0.20836,-0.2633 0.46302,-0.46302 0.41965,-0.32911 0.429,-0.31975 0.0999,0.0999 -0.34565,0.44073 -0.56292,0.58089 -0.56292,0.36313 z m -1.70278,-3.41725 c 0.0994,-0.26093 0.2473,-0.40778 0.32877,-0.32632 0.0815,0.0815 1.6e-4,0.29496 -0.18066,0.47444 -0.2613,0.25936 -0.2917,0.22897 -0.14811,-0.14812 z m 50.91528,-6.80161 c -0.33917,-0.21918 -0.32955,-0.25707 0.0661,-0.26053 0.25466,-0.002 0.46302,0.11501 0.46302,0.26053 0,0.32269 -0.0298,0.32269 -0.52917,0 z m 0.52917,-1.4552 c -0.34178,-0.36381 -0.77062,-0.66146 -0.95299,-0.66146 -0.18237,0 -0.63331,-0.38555 -1.0021,-0.85678 -0.53302,-0.68106 -0.73772,-0.78959 -0.99814,-0.52916 -0.18018,0.18018 -0.61061,0.3276 -0.9565,0.3276 -0.34747,0 -0.98788,0.35899 -1.43111,0.80222 l -0.80221,0.80221 -0.47344,-0.88334 c -0.26315,-0.49097 -0.41648,-1.18133 -0.3452,-1.5542 0.0778,-0.40689 -0.0369,-0.836026 -0.29149,-1.090602 -0.59112,-0.591118 -0.54128,-0.698337 0.53338,-1.147359 0.95019,-0.397013 1.26685,-0.608381 2.24911,-1.501255 0.80539,-0.732092 1.92481,-0.853586 2.60414,-0.282636 1.05601,0.88754 3.18831,4.415142 2.86451,4.738952 -0.0932,0.0932 -0.59269,-0.15336 -1.10998,-0.54792 -0.82622,-0.630184 -0.96113,-0.663659 -1.1101,-0.27544 -0.11666,0.304 0.14584,0.73084 0.84109,1.36766 0.55586,0.50915 1.02769,1.15686 1.0485,1.43935 0.047,0.63837 0.0775,0.64512 -0.66747,-0.14784 z m -2.91042,-0.11668 c 0,-0.28245 0.11906,-0.58714 0.26458,-0.67707 0.15006,-0.0928 0.26459,0.12954 0.26459,0.51355 0,0.37239 -0.11907,0.67707 -0.26459,0.67707 -0.14552,0 -0.26458,-0.2311 -0.26458,-0.51355 z m -4.85069,-5.483671 c -0.32209,-0.322084 -0.18241,-1.160827 0.21896,-1.314848 0.46745,-0.179375 0.26869,-0.62543 -0.27868,-0.62543 -0.20969,0 -0.38126,0.219014 -0.38126,0.486697 0,0.267683 -0.30325,0.624871 -0.6739,0.79375 -0.92558,0.421719 -0.96005,0.405038 -0.86502,-0.418596 0.0559,-0.484178 0.32584,-0.84116 0.81132,-1.072771 0.40403,-0.192751 0.7276,-0.56344 0.7276,-0.833543 0,-0.267532 0.1786,-0.554955 0.39688,-0.638717 0.5873,-0.225369 1.24272,0.107467 1.07456,0.545685 -0.0806,0.209946 0.15071,0.771367 0.51396,1.247603 0.75961,0.995902 0.84089,1.616114 0.24192,1.84596 -0.55617,0.213424 -1.56606,0.204497 -1.78634,-0.01579 z m -34.82257,-4.470862 c 0.50149,-0.518696 1.56665,-1.441129 2.36701,-2.049852 0.80037,-0.608723 1.54268,-1.226132 1.6496,-1.372021 0.11974,-0.163401 0.19594,-0.134783 0.19843,0.07453 0.005,0.449826 1.02107,0.301749 1.83311,-0.267243 0.659,-0.461757 1.22573,-0.387901 0.9125,0.118917 -0.10938,0.176989 -0.0535,0.210569 0.14558,0.08751 0.17769,-0.109816 0.25536,-0.267378 0.1726,-0.350138 -0.0828,-0.08276 0.0468,-0.368493 0.28799,-0.634964 0.41037,-0.453454 0.40616,-0.485056 -0.0656,-0.493295 -0.45631,-0.008 -0.44489,-0.05807 0.12059,-0.529166 0.87603,-0.729804 1.21834,-0.649142 1.28523,0.302849 0.0548,0.780745 0.47481,1.562762 0.83453,1.553985 0.0913,-0.0022 0.34463,-0.121291 0.56291,-0.264583 0.35278,-0.231584 0.35278,-0.29046 0,-0.529878 -0.3359,-0.227967 -0.28283,-0.370232 0.34548,-0.926042 0.6276,-0.555172 1.00724,-0.656696 2.4557,-0.656696 1.23015,0 1.75371,0.105193 1.85648,0.372997 0.0787,0.205149 0.443,0.448259 0.8095,0.540246 0.47306,0.118729 0.61916,0.290267 0.50364,0.591308 -0.0895,0.233233 0.0352,0.642733 0.27705,0.91 0.35874,0.396412 0.37832,0.559973 0.10627,0.887778 -0.18342,0.221011 -0.46074,0.401838 -0.61625,0.401838 -0.15552,0 -0.0518,-0.168859 0.23042,-0.375242 0.6297,-0.46045 0.45666,-0.661262 -0.73669,-0.854916 -0.70445,-0.114317 -1.19148,0.01524 -2.0833,0.554213 -0.80565,0.486885 -0.97165,0.536293 -0.5393,0.16051 0.51445,-0.447139 0.54446,-0.542898 0.17013,-0.542898 -0.30205,0 -0.40164,-0.137725 -0.29693,-0.410617 0.094,-0.244952 0.0474,-0.342509 -0.11557,-0.241806 -0.15023,0.09285 -0.42352,0.04401 -0.60731,-0.108519 -0.24885,-0.206533 -0.45471,-0.07325 -0.80639,0.522089 -0.4083,0.691203 -0.58535,0.779477 -1.30789,0.6521 -0.53151,-0.0937 -0.6578,-0.0708 -0.34699,0.06291 0.45094,0.193996 0.45502,0.238155 0.0528,0.572006 -0.3787,0.314294 -0.45465,0.290144 -0.57864,-0.183991 -0.0861,-0.32919 -0.31701,-0.511983 -0.58192,-0.460629 -0.24156,0.04683 -0.59272,0.09425 -0.78036,0.105384 -0.27781,0.01649 -0.27807,0.08778 -0.001,0.383966 0.18687,0.200048 0.51899,0.296818 0.73803,0.215046 0.34214,-0.127725 0.3471,-0.08576 0.0351,0.297735 -0.19972,0.245527 -0.61644,0.437013 -0.92605,0.425525 -0.3096,-0.01149 -0.41408,-0.08094 -0.23218,-0.15434 0.1819,-0.0734 0.33073,-0.228713 0.33073,-0.345143 0,-0.347428 -1.19128,-0.467773 -1.87614,-0.189529 -0.35057,0.142428 -0.85907,0.302174 -1.12999,0.35499 -0.62699,0.122233 -4.76979,2.273385 -4.88728,2.537723 -0.0485,0.10914 -0.22069,0.198437 -0.38263,0.198437 -0.16194,0 0.11588,-0.424388 0.61736,-0.943084 z m 3.80438,0.178201 c 0.18877,-0.305434 1.20846,-0.921458 1.20846,-0.730064 0,0.06114 -0.31231,0.315808 -0.69403,0.56592 -0.38172,0.250112 -0.61321,0.323977 -0.51443,0.164144 z m 38.46129,-0.170489 c -0.0961,-0.09608 -0.11011,-0.342999 -0.0312,-0.548704 0.0967,-0.251887 0.013,-0.323943 -0.25605,-0.220679 -0.21976,0.08433 -0.47937,0.02421 -0.57691,-0.133607 -0.0975,-0.157815 -0.27994,-0.223521 -0.40535,-0.146013 -0.59311,0.366559 -0.5033,-0.54222 0.15133,-1.531443 0.40184,-0.607213 0.73061,-1.246487 0.73061,-1.420609 0,-0.606677 0.93,-0.553079 2.05619,0.118502 1.07843,0.643099 1.10555,0.688947 0.55315,0.935433 -0.31948,0.142554 -0.58087,0.411566 -0.58087,0.597803 0,0.186237 -0.23784,0.414103 -0.52855,0.506369 -0.2907,0.09227 -0.59877,0.487242 -0.6846,0.877725 -0.0858,0.390484 -0.17788,0.806708 -0.20456,0.924944 -0.0267,0.118236 -0.12713,0.136361 -0.22321,0.04028 z m -36.00046,-1.214126 c 0.17947,-0.180821 0.39297,-0.262115 0.47443,-0.180654 0.0815,0.08146 -0.0654,0.229407 -0.32632,0.328766 -0.37709,0.143585 -0.40748,0.113195 -0.14811,-0.148112 z m 2.05942,-0.07003 c 0.27638,-0.202093 0.6663,-0.304587 0.8665,-0.227763 0.30141,0.115661 0.30332,0.178146 0.0111,0.36339 -0.19411,0.123042 -0.58403,0.225535 -0.86651,0.227763 -0.50306,0.004 -0.50329,-0.0035 -0.0111,-0.36339 z m 5.55176,0.102858 c -0.0899,-0.14552 -0.0445,-0.264583 0.10106,-0.264583 0.14552,0 0.33817,0.119063 0.4281,0.264583 0.0899,0.145521 0.0445,0.264584 -0.10106,0.264584 -0.14552,0 -0.33817,-0.119063 -0.4281,-0.264584 z m 8.6697,-0.150786 c 0.44537,-0.537033 0.42682,-0.556287 -0.95601,-0.992187 -1.73348,-0.546431 -1.69504,-0.546817 -1.84277,0.01849 -0.078,0.29852 -0.1319,0.216029 -0.15169,-0.232186 -0.0169,-0.382364 0.14947,-0.844732 0.36968,-1.027484 0.2202,-0.182752 0.3797,-0.465221 0.35444,-0.627709 -0.0253,-0.162488 0.0922,-0.630606 0.26109,-1.040262 0.16886,-0.409655 0.30701,-1.034734 0.30701,-1.389062 0,-0.59373 -0.10025,-0.644234 -1.27882,-0.644234 -0.94625,0 -1.27881,-0.100715 -1.27881,-0.387276 0,-0.254116 0.39533,-0.446561 1.14978,-0.559697 1.30413,-0.195566 1.63063,-0.489563 0.9603,-0.864698 -0.82399,-0.461125 5.98227,-0.477527 9.33997,-0.02251 l 2.14554,0.290753 -0.0943,0.809876 c -0.12333,1.059231 -0.53694,1.527299 -1.34962,1.527299 -0.52966,0 -0.63261,0.104452 -0.52154,0.529166 0.0934,0.357018 0.008,0.529167 -0.26203,0.529167 -0.25094,0 -0.34235,0.151315 -0.24487,0.405345 0.17034,0.443888 -0.75091,0.917572 -1.78454,0.917572 -0.32606,0 -0.99628,0.297656 -1.48939,0.661458 -0.49311,0.363802 -1.13629,0.661458 -1.42931,0.661458 -0.29301,0 -1.011,0.446485 -1.59552,0.992188 -0.58453,0.545703 -0.85839,0.74574 -0.60859,0.444526 z m -10.52179,-0.37838 c -0.43138,-0.18537 -0.44649,-0.230828 -0.0818,-0.245987 0.24607,-0.01023 0.52099,0.100466 0.61093,0.245987 0.18803,0.304239 0.17883,0.304239 -0.52917,0 z m 17.97237,-0.202489 c -0.15614,-0.106913 -0.35483,-0.387308 -0.44155,-0.623101 -0.13226,-0.359615 0.0734,-0.434042 1.27607,-0.461767 1.65508,-0.03816 1.87005,0.338306 0.51619,0.903982 -1.05999,0.442894 -0.98311,0.432598 -1.35071,0.180886 z m -15.06195,-0.326678 c -0.10561,-0.17088 -0.073,-0.429753 0.0726,-0.575274 0.17639,-0.176389 0.32859,-0.16102 0.45661,0.04611 0.10561,0.17088 0.0729,0.429754 -0.0726,0.575275 -0.17639,0.176388 -0.32859,0.161019 -0.4566,-0.04611 z m -10.18646,-1.311366 c 0,-0.141634 0.23813,-0.384957 0.52917,-0.540717 0.29104,-0.155761 0.52916,-0.18859 0.52916,-0.07295 0,0.115636 -0.23812,0.358959 -0.52916,0.540718 -0.29313,0.18306 -0.52917,0.215602 -0.52917,0.07295 z m 4.46624,-1.957761 c 0.19858,-0.239272 0.52133,-0.43504 0.71723,-0.43504 0.21829,0 0.29981,-0.179252 0.21059,-0.46302 -0.12338,-0.392394 -0.0814,-0.384132 0.27551,0.05416 0.45822,0.562777 0.35042,0.69101 -0.90499,1.07648 -0.59031,0.181251 -0.62156,0.156886 -0.29834,-0.23258 z m 2.0799,-1.013328 c 0.18064,-0.218043 0.2648,-0.460075 0.18703,-0.537849 -0.0778,-0.07777 0.0485,-0.214283 0.28062,-0.303354 0.23212,-0.08907 0.357,-0.05673 0.27751,0.07188 -0.17686,0.286168 0.48652,0.563191 1.26315,0.527487 0.52753,-0.02425 0.52047,-0.04341 -0.0878,-0.23821 -0.41648,-0.133378 -0.49484,-0.221604 -0.21159,-0.23821 0.24743,-0.0145 0.54509,-0.194505 0.66146,-0.399998 0.24012,-0.424013 2.67498,-1.104301 4.84179,-1.352772 1.06244,-0.121831 1.34809,-0.09099 1.05834,0.114253 -0.21828,0.154618 -0.56394,0.282947 -0.76813,0.285176 -0.20419,0.0022 -1.11194,0.35401 -2.01723,0.781737 -1.0166,0.480321 -1.88633,0.724468 -2.27458,0.638507 -0.48591,-0.107586 -0.54025,-0.07718 -0.23939,0.133969 0.5661,0.397288 0.33276,0.50348 -1.58145,0.719725 -1.5094,0.170514 -1.67827,0.145927 -1.38975,-0.202342 z"
         id="path18" /><path
         style="fill:#0e615a"
         d="m 176.94011,156.98727 c 0.1819,-0.0734 0.47956,-0.0734 0.66146,0 0.1819,0.0734 0.0331,0.13345 -0.33073,0.13345 -0.3638,0 -0.51263,-0.0601 -0.33073,-0.13345 z m 3.45612,-0.006 c 0.19099,-0.0764 0.4192,-0.067 0.50712,0.0209 0.0879,0.0879 -0.0683,0.15045 -0.34727,0.13896 -0.30822,-0.0127 -0.37092,-0.0754 -0.15985,-0.15985 z m -12.21691,-3.9203 c 0.0838,-0.21828 0.2732,-0.39688 0.42097,-0.39688 0.15486,0 0.12915,0.16812 -0.0607,0.39688 -0.18116,0.21828 -0.3706,0.39687 -0.42097,0.39687 -0.0504,0 -0.0231,-0.17859 0.0607,-0.39687 z m -2.41598,-0.65843 c -0.0927,-0.14998 0.0135,-0.19434 0.24896,-0.10398 0.45837,0.17589 0.54224,0.36553 0.16165,0.36553 -0.13693,0 -0.32171,-0.11769 -0.41061,-0.26155 z m 0.84137,-0.74511 c -0.47667,-0.49754 -0.71096,-1.0285 -0.71096,-1.61124 0,-0.56966 -0.19566,-1.02759 -0.56784,-1.32896 -0.44836,-0.36307 -0.51031,-0.56262 -0.29442,-0.9484 0.18497,-0.33052 0.18759,-0.73485 0.008,-1.24975 -0.14594,-0.41864 -0.19204,-0.83446 -0.10246,-0.92405 0.0896,-0.0896 0.16288,0.0356 0.16288,0.27809 0,0.24254 0.18662,0.44097 0.41471,0.44097 0.28835,0 0.36897,0.16123 0.26458,0.52917 -0.0826,0.29104 -0.21537,0.76004 -0.29513,1.04222 -0.0965,0.34149 0.0306,0.60704 0.38018,0.79412 0.42494,0.22742 0.4961,0.46031 0.37282,1.22003 -0.12738,0.78497 -0.0297,1.06693 0.59536,1.71941 0.41126,0.42926 0.68821,0.78047 0.61544,0.78047 -0.0728,0 -0.45222,-0.33394 -0.84325,-0.74208 z m -1.64597,0.27501 c -0.15045,-0.10691 -0.7217,-0.74939 -1.26943,-1.42772 -0.70734,-0.87599 -0.90245,-1.29107 -0.6734,-1.43263 0.22616,-0.13978 0.16135,-0.25891 -0.21697,-0.39886 -0.59182,-0.21893 -0.97193,-1.47473 -0.50475,-1.66756 0.16075,-0.0663 0.10302,-0.13003 -0.12828,-0.14152 -0.39223,-0.0195 -1.03466,-1.03433 -1.03466,-1.63447 0,-0.59343 1.34277,1.23386 1.59498,2.17052 0.14932,0.55452 0.37614,1.0729 0.50404,1.15194 0.12791,0.079 0.17688,0.35665 0.10882,0.61689 -0.0777,0.29708 0.28453,0.93696 0.97337,1.71953 1.06628,1.21135 1.21106,1.44521 0.64628,1.04388 z m 4.70533,-0.25214 c -0.52213,-0.18729 -0.38525,-0.60371 0.19843,-0.60371 0.29105,0 0.52917,0.11204 0.52917,0.24897 0,0.33868 -0.32739,0.4983 -0.7276,0.35474 z m -15.56941,-4.10943 -0.50403,-0.59532 0.59531,0.50403 c 0.55945,0.47366 0.71576,0.6866 0.50403,0.6866 -0.0502,0 -0.3181,-0.26789 -0.59531,-0.59531 z m 11.46691,-2.16794 c 0.0865,-0.45237 0.35361,-0.69711 0.88935,-0.81478 0.85367,-0.1875 0.98904,-0.74794 0.38793,-1.60615 -0.35621,-0.50855 -0.33548,-0.5332 0.36229,-0.43079 0.63109,0.0926 0.78216,-0.012 1.02552,-0.71008 0.33765,-0.96857 0.65841,-1.10087 0.42623,-0.1758 -0.14422,0.57462 -0.0675,0.6519 0.72257,0.7276 1.04363,0.10001 6.06746,-0.19039 7.29619,-0.42175 1.56375,-0.29444 4.94238,-1.44834 6.61926,-2.26066 0.90995,-0.4408 1.71593,-0.79971 1.79108,-0.79759 0.0751,0.002 0.37445,-0.2177 0.66512,-0.4885 0.29067,-0.2708 0.85224,-0.66024 1.24793,-0.86541 1.02247,-0.53019 1.43659,-0.87837 4.19781,-3.52951 2.52365,-2.42303 4.18158,-4.44863 3.8844,-4.74581 -0.0921,-0.0921 -0.0286,-0.16752 0.14116,-0.16752 0.47564,0 0.37534,-2.16834 -0.13394,-2.89543 -0.24344,-0.34756 -0.3007,-0.54422 -0.12726,-0.43702 0.95279,0.58885 2.20728,4.61909 1.64767,5.29337 -0.14346,0.17286 -0.33,0.84416 -0.41455,1.49179 -0.16773,1.2849 -0.22889,1.32554 1.16394,-0.77357 0.56004,-0.84403 1.14618,-2.04243 2.41037,-4.9281 0.19125,-0.43656 0.39046,-1.0257 0.44268,-1.30919 0.0522,-0.2835 0.28247,-1.236 0.51166,-2.11667 1.19475,-4.59078 1.4515,-9.91978 0.64523,-13.39238 -0.14984,-0.64538 -0.33528,-1.49741 -0.41207,-1.89339 -0.0768,-0.39599 -0.38517,-0.85138 -0.68527,-1.01199 -0.46083,-0.24663 -0.56795,-0.20669 -0.68919,0.25695 -0.079,0.30193 -0.30267,0.54896 -0.49713,0.54896 -0.57803,0 -1.66193,-0.5739 -1.80933,-0.95801 -0.11069,-0.28847 -0.0395,-0.29622 0.37029,-0.0403 0.27904,0.17426 0.56842,0.25576 0.64308,0.18111 0.19178,-0.19179 -0.41873,-2.08624 -0.68523,-2.12627 -0.1211,-0.0182 -0.33925,-0.0628 -0.48477,-0.0992 -0.14552,-0.0364 -0.38365,-0.081 -0.52917,-0.0992 -0.14552,-0.0182 -0.26458,-0.16671 -0.26458,-0.33005 0,-0.20519 0.12267,-0.19517 0.39687,0.0324 0.32505,0.26976 0.39688,0.25168 0.39688,-0.0999 0,-0.2361 -0.1786,-0.42927 -0.39688,-0.42927 -0.47612,0 -0.54089,-0.52579 -0.0661,-0.53692 0.33493,-0.008 -0.71735,-1.02642 -2.01904,-1.95434 -0.50605,-0.36074 -0.62925,-0.58868 -0.42731,-0.79062 0.20194,-0.20194 0.47707,-0.0367 0.95428,0.57302 0.36879,0.47123 0.80421,0.85678 0.9676,0.85678 0.16339,0 0.61137,0.30111 0.9955,0.66914 0.63713,0.6104 0.69506,0.62338 0.66003,0.14784 -0.0211,-0.28671 -0.49321,-0.93788 -1.04907,-1.44703 -0.69525,-0.63682 -0.95775,-1.06366 -0.84109,-1.36766 0.14897,-0.388219 0.28388,-0.354744 1.1101,0.27544 0.51729,0.39456 1.01678,0.64112 1.10998,0.54792 0.3238,-0.32381 -1.8085,-3.851412 -2.86451,-4.738952 -0.67933,-0.57095 -1.79875,-0.449456 -2.60414,0.282636 -0.9907,0.900548 -1.32964,1.132747 -1.65345,1.132747 -0.1791,0 -0.0651,-0.242763 0.25341,-0.539474 0.31849,-0.29671 0.57906,-0.587018 0.57906,-0.645128 0,-0.05811 -0.35689,-0.496402 -0.79309,-0.973981 -0.50628,-0.554305 -0.73904,-1.038629 -0.64363,-1.339246 0.0861,-0.271393 0.0161,-0.470921 -0.16535,-0.470921 -0.23277,0 -0.22638,-0.106548 0.0245,-0.408881 0.26582,-0.320284 0.15854,-0.305951 -0.49509,0.06615 -0.45894,0.261265 -0.83702,0.594089 -0.84016,0.73961 -0.003,0.145521 -0.11694,0.08871 -0.25288,-0.126249 -0.16815,-0.265913 -0.11694,-0.5347 0.16021,-0.84095 0.37318,-0.412362 0.31355,-0.518068 -0.7109,-1.260175 -0.9363,-0.678254 -1.27991,-0.784206 -2.1118,-0.651181 -0.58748,0.09394 -1.19454,0.03063 -1.4853,-0.154908 -0.45334,-0.289274 -0.45443,-0.302095 -0.0139,-0.164143 0.56351,0.176478 2.30032,-0.49085 2.30032,-0.883842 0,-0.159564 -0.6795,-0.262426 -1.6439,-0.24885 -0.98933,0.01393 -1.6829,-0.09385 -1.74184,-0.270677 -0.14147,-0.424385 -1.94766,-0.345483 -2.55181,0.111473 -0.28248,0.213653 -0.63303,0.38846 -0.77901,0.38846 -0.14598,0 0.13803,-0.297656 0.63114,-0.661458 0.49311,-0.363802 1.16333,-0.661458 1.48939,-0.661458 1.03363,0 1.95488,-0.473684 1.78454,-0.917572 -0.0975,-0.25403 -0.006,-0.405345 0.24487,-0.405345 0.27015,0 0.35539,-0.172149 0.26203,-0.529167 -0.11107,-0.424714 -0.008,-0.529166 0.52154,-0.529166 0.80327,0 1.32003,-0.569993 1.32003,-1.456023 0,-0.544228 0.12814,-0.660644 0.72721,-0.660644 h 0.72722 l -0.42956,0.908009 c -0.23626,0.499405 -0.69745,1.055305 -1.02487,1.235334 -0.58974,0.324259 -0.80365,0.767074 -0.37055,0.767074 0.12363,0 0.73411,0.342074 1.35663,0.760164 0.64812,0.435281 1.37188,0.715658 1.69346,0.656028 0.39074,-0.07245 0.44085,-0.04211 0.16473,0.09973 -0.55302,0.284076 -0.61609,0.848581 -0.11624,1.040391 0.22981,0.08819 1.03178,0.809484 1.78214,1.60288 1.2817,1.355211 2.93664,2.621096 2.09985,1.6062 -0.47173,-0.572124 -0.16591,-1.161441 0.95685,-1.843899 1.06483,-0.647236 2.1523,-1.768685 2.07428,-2.13909 -0.0275,-0.130603 0.21788,-0.421002 0.5453,-0.64533 0.37406,-0.256279 0.59532,-0.297539 0.59532,-0.111014 0,0.163271 -0.15875,0.296855 -0.35278,0.296855 -0.19403,0 -0.35278,0.151161 -0.35278,0.335913 0,0.184751 -0.32877,0.832723 -0.73061,1.439936 -0.65463,0.989223 -0.74444,1.898002 -0.15133,1.531443 0.12541,-0.07751 0.30782,-0.0118 0.40535,0.146013 0.0975,0.157816 0.35715,0.217939 0.57691,0.133607 0.27516,-0.105587 0.3528,-0.03146 0.24938,0.238073 -0.0826,0.215271 -0.0363,0.461773 0.10283,0.547782 0.13916,0.08601 0.25303,-0.139799 0.25303,-0.501795 0,-0.652813 0.60517,-1.489722 1.07723,-1.489722 0.13513,0 0.24568,-0.17057 0.24568,-0.379045 0,-0.208475 0.2471,-0.457471 0.54911,-0.553325 0.92091,-0.292284 0.99217,0.135931 0.20422,1.227137 -0.56583,0.783594 -0.0842,1.292733 1.22275,1.292733 1.29452,0 1.6597,0.440433 0.47902,0.577739 -0.66032,0.07679 -0.71543,0.171299 -0.66586,1.142053 0.076,1.48798 0.12477,1.712748 0.34259,1.578133 0.10535,-0.06511 0.36775,0.148487 0.58311,0.47466 0.21536,0.326172 0.69839,0.897989 1.07341,1.270703 0.80267,0.797744 2.40394,3.552745 2.66159,4.579265 0.0991,0.39481 0.28716,0.65171 0.41794,0.57088 0.31104,-0.19223 0.63057,0.82379 0.38436,1.22216 -0.111,0.17961 -0.0755,0.23692 0.0852,0.13757 0.45723,-0.28258 0.77474,0.37651 1.28539,2.66819 0.26752,1.20055 0.56342,2.18281 0.65757,2.18281 0.0942,0 0.11334,0.3026 0.0426,0.67244 -0.09,0.47079 -0.022,0.64931 0.22674,0.59531 0.23356,-0.0507 0.34792,0.17216 0.3338,0.65048 -0.0118,0.40018 0.0813,0.7276 0.20683,0.7276 0.12557,0 0.2283,0.35017 0.2283,0.77814 0,0.42797 0.12077,0.85277 0.26837,0.94399 0.28331,0.1751 1.31913,2.08229 1.31913,2.42884 0,0.32921 -2.10098,-2.93024 -2.10918,-3.27217 -0.004,-0.17151 -0.16077,-0.46916 -0.34811,-0.66146 -0.18735,-0.19229 -0.61424,-0.79685 -0.94864,-1.34346 -1.02687,-1.6785 -1.17955,-0.79692 -0.17766,1.0258 0.51577,0.93832 0.93776,1.89152 0.93776,2.11822 0,0.2267 0.23813,0.71491 0.52917,1.08491 0.29104,0.37 0.52916,0.82496 0.52916,1.01103 0,0.18607 0.50467,0.70944 1.12149,1.16305 0.61681,0.45361 1.12283,1.02946 1.12447,1.27966 0.002,0.28081 0.19101,0.43905 0.49425,0.41346 0.32726,-0.0276 0.40298,0.0468 0.22684,0.22295 -0.33929,0.33929 -1.45397,-0.22281 -1.30832,-0.65974 0.11302,-0.33909 -1.0684,-1.3909 -1.30102,-1.15829 -0.079,0.079 -0.24898,1.49154 -0.3778,3.13902 -0.12882,1.64749 -0.31251,3.29309 -0.40821,3.65689 -0.0957,0.3638 -0.2102,0.941 -0.25444,1.28267 -0.17972,1.38804 -1.50601,5.054 -1.76954,4.89113 -0.16329,-0.10091 -0.19568,-0.0413 -0.0796,0.14653 0.2317,0.37489 -0.60051,2.94477 -1.08909,3.36312 -0.18675,0.15991 -0.2521,0.38724 -0.14523,0.50518 0.10688,0.11793 -0.0309,0.1332 -0.30612,0.0339 -0.41091,-0.14822 -0.44443,-0.11303 -0.18739,0.19669 0.17218,0.20746 0.20891,0.41855 0.0816,0.46908 -0.12728,0.0505 -0.66393,0.77238 -1.19255,1.60411 -0.52862,0.83173 -1.20669,1.75778 -1.50681,2.0579 -0.30011,0.30012 -0.92938,1.04837 -1.39836,1.66277 -0.46899,0.6144 -0.96736,1.13081 -1.10749,1.14758 -0.41343,0.0495 -0.76795,0.79013 -0.59452,1.24208 0.11916,0.31054 0.41998,0.38926 1.16658,0.30526 l 1.00602,-0.11319 -1.03523,0.29633 c -0.8996,0.25751 -1.08046,0.23446 -1.38058,-0.17598 -0.18995,-0.25978 -0.2876,-0.5658 -0.21698,-0.68005 0.0706,-0.11425 -0.15845,-0.8563 -0.50901,-1.64899 -0.35057,-0.79269 -0.71849,-1.9616 -0.81761,-2.59756 -0.18064,-1.15913 -0.77225,-2.71487 -1.27194,-3.34481 -0.20197,-0.25462 -0.94945,0.32758 -3.07401,2.39428 -1.54393,1.50189 -3.37176,3.11687 -4.06184,3.58886 -2.62083,1.79251 -7.74617,3.85988 -11.62056,4.68729 -2.11457,0.45158 -7.85265,0.61404 -9.69837,0.27458 -1.0284,-0.18914 -1.15687,-0.15468 -1.28763,0.34534 -0.2032,0.77704 -0.56646,0.6974 -0.41572,-0.0911 z m 40.24915,-38.13888 c 0.0534,-0.0452 0.15538,-0.5986 0.22653,-1.22982 l 0.12936,-1.14767 -1.68174,0.0375 c -1.8374,0.041 -2.41939,-0.0768 -2.19262,-0.44374 0.0812,-0.1313 -0.0386,-0.31015 -0.2661,-0.39745 -0.22751,-0.0873 -0.41365,-0.42381 -0.41365,-0.74779 0,-0.77319 -0.26228,-1.00853 -0.70993,-0.63701 -0.30441,0.25263 -0.29812,0.37053 0.0397,0.74382 0.36087,0.39875 0.34844,0.50049 -0.12293,1.00644 -0.32603,0.34995 -0.42052,0.62703 -0.24982,0.73253 0.15101,0.0933 0.23909,0.42703 0.19575,0.74156 -0.12643,0.91746 1.82453,1.77629 3.58402,1.57773 0.75034,-0.0847 1.40798,-0.19093 1.46143,-0.23611 z M 192.35209,95.692997 c 0,-0.04739 -0.32382,-0.374816 -0.7196,-0.727605 -0.39578,-0.352788 -0.57541,-0.451884 -0.39917,-0.220214 0.17623,0.231671 0.23216,0.51865 0.12428,0.637732 -0.10787,0.119082 -0.0555,0.135951 0.11631,0.03749 0.17185,-0.09846 0.38723,-0.05802 0.47864,0.08987 0.15822,0.256008 0.39954,0.366375 0.39954,0.182729 z m 5.8743,-0.638374 c 0.16483,0.0347 0.42245,-0.353632 0.57248,-0.862955 0.15003,-0.509323 0.45752,-1.071084 0.68331,-1.248357 0.36505,-0.286606 0.35851,-0.323246 -0.059,-0.330729 -0.25993,-0.0047 -0.58861,-0.321531 -0.73623,-0.709784 -0.22144,-0.582442 -0.16765,-0.806762 0.31726,-1.322917 0.83902,-0.893098 0.4381,-0.766385 -0.57782,0.182621 -0.8029,0.750025 -0.83656,0.849588 -0.49983,1.478762 0.31793,0.594052 0.3068,0.70494 -0.0932,0.928771 -0.2498,0.139797 -0.45419,0.381902 -0.45419,0.53801 0,0.181813 0.14265,0.165443 0.39688,-0.04554 0.32504,-0.269761 0.39687,-0.251681 0.39687,0.09989 0,0.236099 -0.17758,0.429272 -0.39463,0.429272 -0.21705,0 -0.53593,0.226245 -0.70862,0.502766 -0.17473,0.279789 -0.49842,0.444735 -0.72984,0.371917 -0.34462,-0.108433 -0.35166,-0.08524 -0.0411,0.135391 0.234,0.16623 0.61016,0.176755 1.00137,0.02802 0.34461,-0.131023 0.76144,-0.209835 0.92627,-0.175137 z m -2.96389,-1.656705 c 0,-0.145521 -0.11203,-0.264584 -0.24896,-0.264584 -0.13694,0 -0.32256,0.119063 -0.41249,0.264584 -0.0899,0.145521 0.0221,0.264583 0.24896,0.264583 0.22687,0 0.41249,-0.119062 0.41249,-0.264583 z m -43.81368,51.527602 -0.50402,-0.59531 0.59531,0.50403 c 0.55945,0.47366 0.71576,0.68659 0.50403,0.68659 -0.0502,0 -0.3181,-0.26789 -0.59532,-0.59531 z m 9.05447,-0.8459 c -0.23333,-0.35611 -1.40788,-1.14274 -2.61011,-1.74807 -1.20224,-0.60532 -3.13838,-1.72569 -4.30255,-2.4897 -2.34264,-1.5374 -6.42423,-5.40343 -7.76166,-7.35174 -0.4745,-0.69123 -0.97606,-1.25678 -1.11459,-1.25678 -0.13853,0 -0.23326,-0.0893 -0.21051,-0.19843 0.0227,-0.10914 -0.27491,-0.88644 -0.66146,-1.72734 -0.38655,-0.84089 -0.71119,-1.73386 -0.72142,-1.98437 -0.0155,-0.37956 -0.0527,-0.36812 -0.22333,0.0686 -0.36771,0.94132 -0.81751,-3.35056 -0.79781,-7.61253 0.0102,-2.21325 0.0995,-4.20268 0.19844,-4.42097 0.15347,-0.33868 0.3544,-0.30726 1.37046,0.21437 0.65485,0.33618 0.97121,0.54403 0.70303,0.46189 -0.26818,-0.0821 -0.77757,-0.22212 -1.13197,-0.31107 l -0.64437,-0.16173 0.17329,2.61025 c 0.0953,1.43564 0.26797,2.71406 0.38369,2.84093 0.11572,0.12687 0.14282,0.40678 0.0602,0.62202 -0.0826,0.21523 0.016,0.49391 0.21911,0.61929 0.20311,0.12537 0.38214,0.45686 0.39785,0.73663 0.0343,0.61035 2.25621,5.18125 3.44744,7.09196 1.58666,2.54498 4.84555,5.77165 7.6365,7.56099 0.7276,0.46648 1.39576,0.95152 1.48479,1.07787 0.089,0.12634 0.26762,0.23231 0.39687,0.23549 0.12925,0.003 0.68149,0.23355 1.22719,0.51194 l 0.99219,0.50618 0.0331,-1.26215 0.0331,-1.26215 0.18513,1.05834 c 0.10182,0.58208 0.39481,1.71317 0.65109,2.51354 0.79868,2.4943 1.15129,3.70416 1.07956,3.70416 -0.038,0 -0.25998,-0.29136 -0.49331,-0.64746 z m 41.39876,-1.79993 c 0.0622,-0.0364 0.5881,-0.48287 1.16858,-0.99219 l 1.05542,-0.92604 -0.9118,0.99219 c -0.50149,0.5457 -1.02735,0.99218 -1.16858,0.99218 -0.14123,0 -0.20585,-0.0298 -0.14362,-0.0661 z m 2.0917,-2.15042 c 0,-0.0549 0.20836,-0.2633 0.46302,-0.46302 0.41965,-0.32911 0.42901,-0.31975 0.0999,0.0999 -0.34564,0.44073 -0.56292,0.58088 -0.56292,0.36312 z m 2.00139,-2.88808 c 0.0994,-0.26093 0.2473,-0.40778 0.32877,-0.32632 0.0815,0.0815 1.6e-4,0.29496 -0.18066,0.47444 -0.2613,0.25936 -0.2917,0.22897 -0.14811,-0.14812 z m 3.86122,-0.45161 c 0,-0.3638 0.0601,-0.51263 0.13346,-0.33072 0.0734,0.1819 0.0734,0.47955 0,0.66145 -0.0734,0.1819 -0.13346,0.0331 -0.13346,-0.33073 z m 1.81436,-0.31511 c 0.007,-0.58703 0.43498,-1.10312 0.63995,-0.77147 0.0995,0.16106 0.0479,0.29283 -0.11483,0.29283 -0.1627,0 -0.22732,0.11084 -0.14359,0.24631 0.0837,0.13546 0.0312,0.32108 -0.11668,0.41249 -0.14789,0.0914 -0.26708,0.0103 -0.26485,-0.18016 z m -5.53941,-0.89756 c 0.0127,-0.30822 0.0754,-0.37092 0.15985,-0.15985 0.0764,0.19099 0.067,0.4192 -0.0209,0.50712 -0.0879,0.0879 -0.15045,-0.0684 -0.13896,-0.34727 z m 4.19952,-1.24162 c 0.12878,-1.09007 0.1343,-1.09558 0.22404,-0.22404 0.0506,0.49145 -0.009,0.99436 -0.13203,1.11758 -0.12323,0.12323 -0.16463,-0.27886 -0.092,-0.89354 z m -3.42666,-0.18482 c 0,-0.13898 0.23813,-0.38012 0.52917,-0.53589 0.29104,-0.15576 0.52916,-0.24594 0.52916,-0.2004 0,0.0455 -0.23812,0.28669 -0.52916,0.53589 -0.29104,0.2492 -0.52917,0.33938 -0.52917,0.2004 z m 5.97191,-0.24091 c -0.0796,-0.1288 -0.014,-0.60919 0.14576,-1.06753 0.15978,-0.45833 0.23508,-1.12325 0.16735,-1.47759 -0.072,-0.37641 -0.0165,-0.57833 0.13344,-0.48567 0.1483,0.0916 0.17934,0.61871 0.0735,1.24876 -0.10068,0.5996 -0.19933,1.29854 -0.21923,1.5532 -0.0409,0.52328 -0.094,0.56364 -0.30087,0.22883 z m -4.64899,-0.65945 c 0,-0.055 0.20836,-0.26331 0.46302,-0.46302 0.41964,-0.32911 0.429,-0.31975 0.0999,0.0999 -0.34564,0.44073 -0.56291,0.58089 -0.56291,0.36313 z m 2.93246,-0.49824 c 0.0606,-0.0379 0.4079,-0.30582 0.7717,-0.59531 l 0.66146,-0.52635 -0.50403,0.59531 c -0.27721,0.32742 -0.62448,0.59531 -0.7717,0.59531 -0.14722,0 -0.21806,-0.031 -0.15743,-0.069 z m -2.14294,-1.83684 c -0.0704,-0.82992 -0.0316,-1.41207 0.0864,-1.29369 0.11794,0.11839 0.17557,0.79741 0.12806,1.50894 l -0.0864,1.29368 z m -0.60911,-2.74373 c -0.18021,-1.11046 0.38772,-2.49491 1.23522,-3.01111 l 0.56874,-0.34641 -0.5649,0.63009 c -0.70503,0.78638 -1.00319,1.70132 -0.91668,2.8129 0.0898,1.15428 -0.13069,1.09582 -0.32238,-0.0855 z m 2.20084,-4.21401 c 0.34177,-0.3638 0.68094,-0.66146 0.7537,-0.66146 0.0728,0 -0.14734,0.29766 -0.48912,0.66146 -0.34177,0.3638 -0.68094,0.66146 -0.7537,0.66146 -0.0728,0 0.14734,-0.29766 0.48912,-0.66146 z m 1.45521,-1.19062 c 0.26338,-0.29104 0.53842,-0.52917 0.61118,-0.52917 0.0728,0 -0.0832,0.23813 -0.3466,0.52917 -0.26339,0.29104 -0.53842,0.52916 -0.61118,0.52916 -0.0728,0 0.0832,-0.23812 0.3466,-0.52916 z m 3.59276,-0.68351 c 0.0127,-0.30822 0.0754,-0.37092 0.15985,-0.15985 0.0764,0.19099 0.067,0.4192 -0.0209,0.50712 -0.0879,0.0879 -0.15045,-0.0683 -0.13896,-0.34727 z m -0.092,-4.05778 c -0.11508,-0.4401 -0.0806,-0.5434 0.11569,-0.34706 0.15375,0.15375 0.22749,0.43572 0.16386,0.6266 -0.066,0.19816 -0.18599,0.0782 -0.27955,-0.27954 z m -2.35974,0.0626 c 0.191,-0.0764 0.4192,-0.067 0.50712,0.0209 0.0879,0.0879 -0.0684,0.15045 -0.34727,0.13896 -0.30822,-0.0127 -0.37092,-0.0754 -0.15985,-0.15985 z m -1.59915,-0.92216 c 0.15375,-0.15375 0.43572,-0.22749 0.6266,-0.16386 0.19816,0.066 0.0782,0.18599 -0.27955,0.27954 -0.44009,0.11509 -0.54339,0.0807 -0.34705,-0.11568 z m 1.11959,-0.324 c 0,-0.0572 0.18478,-0.17489 0.41062,-0.26155 0.23546,-0.0904 0.34166,-0.046 0.24897,0.10398 -0.15538,0.25141 -0.65959,0.37186 -0.65959,0.15757 z m 1.85209,-0.93873 c 0,-0.13694 0.1177,-0.32171 0.26155,-0.41062 0.14998,-0.0927 0.19434,0.0135 0.10398,0.24897 -0.17589,0.45837 -0.36553,0.54223 -0.36553,0.16165 z m -69.26926,-3.05833 c 0.005,-0.43656 0.0647,-0.58312 0.13178,-0.32569 0.0671,0.25743 0.0627,0.61462 -0.01,0.79375 -0.0725,0.17913 -0.12736,-0.0315 -0.12197,-0.46806 z m 68.33555,-2.1972 c -0.1413,-0.10122 -0.49419,-0.4817 -0.78419,-0.84551 l -0.52728,-0.66145 0.79186,0.66145 c 0.43552,0.36381 0.84147,0.69123 0.9021,0.72761 0.0606,0.0364 0.0572,0.1192 -0.008,0.18405 -0.0649,0.0648 -0.23352,0.0351 -0.37483,-0.0662 z m -0.15837,-1.57311 c -0.32911,-0.41964 -0.31975,-0.429 0.0999,-0.0999 0.44073,0.34564 0.58089,0.56291 0.36313,0.56291 -0.0549,0 -0.26331,-0.20836 -0.46302,-0.46302 z m -17.47837,-2.62814 c 0.191,-0.0764 0.4192,-0.067 0.50712,0.0209 0.0879,0.0879 -0.0683,0.15045 -0.34726,0.13897 -0.30823,-0.0127 -0.37092,-0.0754 -0.15986,-0.15986 z M 188.9432,96.138204 c -0.0322,-0.595187 0.63377,-1.046858 0.90249,-0.612064 0.086,0.139165 -0.0205,0.253028 -0.23671,0.253028 -0.2162,0 -0.44754,0.208359 -0.51409,0.463021 -0.0954,0.365225 -0.12748,0.343263 -0.15169,-0.103985 z m -0.69215,-1.41737 c 0.0899,-0.14552 0.28258,-0.264583 0.4281,-0.264583 0.14552,0 0.191,0.119063 0.10106,0.264583 -0.0899,0.145521 -0.28258,0.264584 -0.4281,0.264584 -0.14552,0 -0.191,-0.119063 -0.10106,-0.264584 z m -4.49792,-4.497916 c -0.0899,-0.145521 -0.0374,-0.264584 0.11668,-0.264584 0.1541,0 0.28019,0.119063 0.28019,0.264584 0,0.145521 -0.0525,0.264583 -0.11667,0.264583 -0.0642,0 -0.19026,-0.119062 -0.2802,-0.264583 z M 158.75,89.426621 c 0,-0.156879 0.14883,-0.255034 0.33073,-0.218124 0.53106,0.107757 1.55454,-0.569917 1.35307,-0.895901 -0.11907,-0.192667 -0.0302,-0.237616 0.254,-0.128538 0.26951,0.103418 0.41296,0.04457 0.37413,-0.153475 -0.0346,-0.176664 0.0859,-0.309301 0.26776,-0.294749 1.20403,0.09632 1.19941,0.09362 0.8599,0.502709 -0.18116,0.218281 -0.4669,0.396875 -0.63499,0.396875 -0.16808,0 -0.59999,0.20627 -0.95979,0.458378 -0.77548,0.543368 -1.84481,0.736288 -1.84481,0.332825 z m 5.68225,-0.69041 c 0.2356,-0.235605 0.50855,-0.348194 0.60655,-0.250197 0.098,0.098 0.003,0.288942 -0.21104,0.424322 -0.62507,0.395305 -0.86105,0.291413 -0.39551,-0.174125 z m -0.95351,-0.563814 c -0.0186,-0.254662 -0.0614,-0.721396 -0.0952,-1.037187 -0.0675,-0.631779 0.84957,-1.059981 1.30176,-0.607793 0.16483,0.164834 0.10736,0.255917 -0.16148,0.255917 -0.22957,0 -0.56562,0.178594 -0.74677,0.396875 -0.39329,0.473884 -0.32712,0.483384 0.75044,0.107744 0.68286,-0.238049 0.78498,-0.372139 0.57795,-0.758962 -0.29706,-0.55507 -0.11124,-0.80399 0.60018,-0.80399 0.45145,0 0.47114,0.05591 0.15435,0.438243 -0.33409,0.403196 -0.22572,0.422721 1.35505,0.244144 1.91421,-0.216245 2.14755,-0.322437 1.58145,-0.719725 -0.30086,-0.211145 -0.24652,-0.241555 0.23939,-0.133969 0.37855,0.08381 1.27318,-0.15194 2.24896,-0.592642 2.20473,-0.995753 3.5485,-1.418696 3.87208,-1.218712 0.47798,0.295403 0.034,0.594152 -1.14604,0.771105 -0.75445,0.113136 -1.14978,0.305581 -1.14978,0.559697 0,0.287978 0.33682,0.387276 1.31365,0.387276 h 1.31366 l -0.14625,1.09037 c -0.18633,1.38919 -0.68604,1.967684 -0.62704,0.725907 0.0397,-0.836093 -0.0114,-0.890677 -0.88389,-0.943811 -2.29822,-0.13996 -3.99605,-0.139604 -4.13653,8.68e-4 -0.0841,0.08411 0.16119,0.467038 0.5451,0.85095 0.67448,0.67448 0.67766,0.691699 0.0942,0.510543 -0.3321,-0.103113 -0.69903,-0.350476 -0.8154,-0.549694 -0.14402,-0.246548 -0.7501,-0.362217 -1.89793,-0.362217 -1.44988,0 -1.80977,0.102028 -2.56654,0.727605 -0.48411,0.400182 -0.91989,0.816901 -0.96839,0.926041 -0.16674,0.375159 -0.5733,0.197954 -0.60703,-0.264583 z m 25.57735,-0.57703 c -0.0837,-0.135466 -0.0312,-0.321086 0.11668,-0.41249 0.1479,-0.0914 0.2689,0.01943 0.2689,0.246301 0,0.464747 -0.15876,0.533177 -0.38558,0.166189 z M 187.325,87.047918 c -0.23846,-0.154109 -0.2711,-0.258098 -0.0818,-0.260532 0.17332,-0.0022 0.3887,0.115011 0.47864,0.260532 0.20302,0.328487 0.11142,0.328487 -0.39688,0 z m -20.6071,-1.298529 c -0.29193,-0.184889 -0.24876,-0.295092 0.21231,-0.541845 0.31833,-0.170364 0.7809,-0.255313 1.02793,-0.188776 0.35227,0.09488 0.30648,0.166606 -0.2123,0.332518 l -0.66146,0.211541 0.66146,0.187005 0.66146,0.187005 -0.66146,0.02232 c -0.3638,0.01228 -0.82637,-0.08212 -1.02794,-0.20977 z m 9.42846,-2.316283 c 0.1819,-0.0734 0.47956,-0.0734 0.66146,0 0.1819,0.0734 0.0331,0.133452 -0.33073,0.133452 -0.3638,0 -0.51263,-0.06005 -0.33073,-0.133452 z"
         id="path17" /><path
         style="fill:#09364b"
         d="m 175.49964,156.88414 c -15.1886,-1.42483 -28.40596,-12.50422 -32.07359,-26.88551 -0.67445,-2.64462 -0.70221,-3.60357 -0.0521,-1.79873 0.26393,0.73271 0.64212,1.62568 0.84042,1.98438 0.19829,0.3587 0.33524,0.74148 0.30433,0.85062 -0.0309,0.10914 0.0571,0.19843 0.19566,0.19843 0.13853,0 0.64009,0.56555 1.11459,1.25678 1.33743,1.94831 5.41902,5.81434 7.76166,7.35174 1.16417,0.76401 3.0925,1.88044 4.28519,2.48095 1.97529,0.99455 3.25543,2.13324 3.25543,2.8957 0,0.61009 0.63884,1.62648 1.03466,1.64614 0.2313,0.0115 0.28903,0.0752 0.12828,0.14152 -0.46718,0.19283 -0.0871,1.44863 0.50475,1.66756 0.36798,0.13612 0.43947,0.26134 0.22492,0.39395 -0.48113,0.29735 1.48123,2.65796 2.7376,3.29316 1.94802,0.9849 2.44147,1.10628 2.79003,0.68629 0.25424,-0.30634 0.2338,-0.38254 -0.10259,-0.38254 -0.23104,0 -0.85347,-0.38053 -1.38319,-0.84563 -0.86502,-0.7595 -0.94932,-0.94856 -0.82761,-1.85597 0.10946,-0.8161 0.0361,-1.06355 -0.38172,-1.28715 -0.3426,-0.18335 -0.46827,-0.45002 -0.37222,-0.78986 0.0798,-0.28218 0.21257,-0.75118 0.29513,-1.04222 0.10439,-0.36794 0.0238,-0.52917 -0.26458,-0.52917 -0.22809,0 -0.41471,-0.11532 -0.41471,-0.25628 0,-0.14095 0.16295,-0.19375 0.36211,-0.11732 0.21787,0.0836 0.42152,-0.0883 0.51127,-0.43146 0.13525,-0.5172 0.25573,-0.55081 1.29154,-0.36031 1.84572,0.33946 7.5838,0.177 9.69837,-0.27458 3.87439,-0.82741 8.99973,-2.89478 11.62056,-4.68729 0.69008,-0.47199 2.51791,-2.08697 4.06184,-3.58886 2.12456,-2.0667 2.87204,-2.6489 3.07401,-2.39428 0.49969,0.62994 1.0913,2.18568 1.27194,3.34481 0.0991,0.63596 0.46704,1.80487 0.81761,2.59756 0.35056,0.79269 0.57962,1.53474 0.50901,1.64899 -0.0706,0.11425 0.02,0.41071 0.20144,0.6588 0.28932,0.39567 0.54008,0.4182 2.04204,0.18341 1.5965,-0.24956 1.79695,-0.36104 2.96579,-1.64952 0.71577,-0.78904 1.32176,-1.74543 1.41254,-2.22933 0.10395,-0.55407 0.3867,-0.95122 0.81674,-1.14716 0.58015,-0.26433 0.64898,-0.44238 0.58337,-1.50923 -0.0676,-1.09989 0.007,-1.2735 0.8244,-1.91489 1.93494,-1.51851 2.12084,-1.79497 2.12084,-3.15395 0,-0.70511 -0.11269,-1.39513 -0.25043,-1.53338 -0.36007,-0.3614 -0.39675,-2.24447 -0.06,-3.08205 0.15787,-0.39272 1.1361,-1.56478 2.17384,-2.60458 1.96124,-1.96513 3.493,-4.57887 3.2432,-5.53409 -0.11917,-0.45569 -0.22659,-0.47134 -1.22951,-0.17901 -1.38529,0.40376 -2.08063,0.39313 -2.22395,-0.034 -0.0651,-0.19395 0.31444,-0.50661 0.90326,-0.74414 2.06224,-0.83189 2.87283,-1.25553 3.08228,-1.61091 0.38693,-0.65653 0.71908,-0.0777 0.75666,1.3187 0.15011,5.57902 -0.14548,8.87378 -1.12791,12.57179 -0.59675,2.24627 -2.08768,6.22219 -2.26628,6.04359 -0.0669,-0.0669 0.18304,-0.84526 0.55532,-1.72977 0.65045,-1.54539 0.84854,-2.68721 0.52273,-3.01302 -0.0848,-0.0848 -0.61613,0.32186 -1.18075,0.90366 -0.56462,0.58181 -1.14408,0.98521 -1.28768,0.89646 -0.14621,-0.0904 -0.32865,0.27843 -0.41463,0.83818 -0.0845,0.54974 -0.26906,1.36518 -0.41025,1.81207 -0.51905,1.64292 -0.0781,2.71419 0.95422,2.31806 1.33449,-0.51208 -3.67719,6.34985 -6.74647,9.23721 -7.69081,7.23496 -18.40532,10.9489 -28.7794,9.97571 z m -5.10797,-5.55809 c 0,-0.13693 -0.23812,-0.24897 -0.52917,-0.24897 -0.58368,0 -0.72056,0.41642 -0.19843,0.60371 0.40021,0.14356 0.7276,-0.0161 0.7276,-0.35474 z m 39.2472,-34.86359 c -0.45859,-0.38899 -0.90893,-0.96439 -1.00075,-1.27867 -0.0918,-0.31428 -0.34092,-0.71581 -0.55357,-0.89229 -0.21265,-0.17648 -0.38663,-0.54032 -0.38663,-0.80854 0,-0.26821 -0.42199,-1.25538 -0.93776,-2.1937 -1.00189,-1.82272 -0.84921,-2.7043 0.17766,-1.0258 0.3344,0.54661 0.76129,1.15117 0.94864,1.34346 0.18734,0.1923 0.34063,0.47763 0.34063,0.63407 0,0.15645 0.42651,0.92701 0.9478,1.71237 0.81722,1.23119 1.56067,2.95345 1.36109,3.15303 -0.0348,0.0348 -0.43853,-0.25495 -0.89711,-0.64393 z m 4.50358,-5.47275 c -0.0844,-0.21993 -0.57832,-0.82475 -1.09761,-1.34404 -0.72658,-0.72658 -0.86151,-0.99525 -0.5855,-1.16583 0.4735,-0.29264 1.83202,1.1504 2.03407,2.16061 0.15758,0.78791 -0.0886,1.03291 -0.35096,0.34926 z m -12.3067,-3.91501 c -0.89151,-0.44984 -1.13161,-0.70818 -1.07048,-1.15178 0.0433,-0.31453 -0.0447,-0.64823 -0.19575,-0.74156 -0.1707,-0.1055 -0.0762,-0.38258 0.24982,-0.73253 0.47137,-0.50595 0.4838,-0.60769 0.12293,-1.00644 -0.33782,-0.37329 -0.34411,-0.49119 -0.0397,-0.74382 0.44765,-0.37152 0.70993,-0.13618 0.70993,0.63701 0,0.32398 0.18614,0.66048 0.41365,0.74779 0.2275,0.0873 0.34725,0.26615 0.2661,0.39745 -0.22677,0.36694 0.35522,0.48472 2.19262,0.44374 l 1.68174,-0.0375 -0.12936,1.14767 c -0.0711,0.63122 -0.17309,1.18464 -0.22653,1.22982 -0.0534,0.0452 -0.71109,0.15143 -1.46143,0.23611 -1.08833,0.12282 -1.5967,0.0367 -2.51354,-0.42595 z m -5.537,-11.872958 c -0.31058,-0.220629 -0.30354,-0.243824 0.0411,-0.135391 0.23142,0.07282 0.55511,-0.09213 0.72984,-0.371917 0.17269,-0.276521 0.49157,-0.502766 0.70862,-0.502766 0.21705,0 0.39463,-0.193173 0.39463,-0.429272 0,-0.351576 -0.0718,-0.369656 -0.39687,-0.09989 -0.25423,0.210987 -0.39688,0.227357 -0.39688,0.04554 0,-0.156108 0.20439,-0.398213 0.45419,-0.53801 0.39996,-0.223831 0.41109,-0.334719 0.0932,-0.928771 -0.33673,-0.629174 -0.30307,-0.728737 0.49983,-1.478762 1.01592,-0.949006 1.41684,-1.075719 0.57782,-0.182621 -0.48491,0.516155 -0.5387,0.740475 -0.31726,1.322917 0.14762,0.388253 0.4763,0.705126 0.73623,0.709784 0.41755,0.0075 0.42409,0.04412 0.059,0.330729 -0.22579,0.177273 -0.53328,0.739034 -0.68331,1.248357 -0.15003,0.509323 -0.40765,0.897652 -0.57248,0.862955 -0.16483,-0.0347 -0.58166,0.04411 -0.92627,0.175137 -0.39121,0.148737 -0.76737,0.138212 -1.00137,-0.02802 z m -1.6977,-1.803824 c 0.0899,-0.145521 0.27555,-0.264584 0.41249,-0.264584 0.13693,0 0.24896,0.119063 0.24896,0.264584 0,0.145521 -0.18562,0.264583 -0.41249,0.264583 -0.22687,0 -0.3389,-0.119062 -0.24896,-0.264583 z m -3.50931,-1.9659 c -0.93572,-0.935724 -1.86948,-1.765848 -2.07502,-1.844721 -0.46215,-0.177345 -0.37246,-0.74975 0.16037,-1.023456 0.27612,-0.141842 0.22601,-0.172185 -0.16473,-0.09973 -0.32158,0.05963 -1.04534,-0.220747 -1.69346,-0.656028 -0.62252,-0.41809 -1.233,-0.760164 -1.35663,-0.760164 -0.45375,0 -0.20642,-0.449567 0.43669,-0.79375 0.3638,-0.194701 0.66146,-0.48972 0.66146,-0.655598 0,-0.165878 0.14883,-0.504025 0.33073,-0.751437 0.30985,-0.421444 0.456,-0.415132 2.3151,0.09998 1.09141,0.302403 3.14574,1.095589 4.56519,1.762635 2.41698,1.135821 2.54687,1.236587 2.0461,1.587342 -0.2941,0.205992 -0.47998,0.463108 -0.41307,0.571369 0.18133,0.293405 -0.9064,1.433317 -2.00478,2.100951 -1.09748,0.66709 -1.42988,1.271283 -0.9906,1.800582 0.16585,0.199837 0.20759,0.363339 0.0928,0.363339 -0.11484,0 -0.97438,-0.765592 -1.91011,-1.701316 z m -1.65007,-4.00284 c 0,-0.22687 -0.121,-0.337705 -0.2689,-0.246301 -0.14789,0.0914 -0.2004,0.277024 -0.11668,0.41249 0.22682,0.366988 0.38558,0.298558 0.38558,-0.166189 z m -1.71979,-0.38126 c -0.0899,-0.145521 -0.30532,-0.26276 -0.47864,-0.260532 -0.18934,0.0024 -0.1567,0.106423 0.0818,0.260532 0.5083,0.328487 0.5999,0.328487 0.39688,0 z"
         id="path16" /></g><path
       sodipodi:type="star"
       style="fill:#ffffff;fill-opacity:1;stroke-width:1.31;stroke-linecap:round;stroke-linejoin:round"
       id="path2"
       inkscape:flatsided="false"
       sodipodi:sides="4"
       sodipodi:cx="86.214859"
       sodipodi:cy="87.912003"
       sodipodi:r1="36.081753"
       sodipodi:r2="9.4782648"
       sodipodi:arg1="0.85196633"
       sodipodi:arg2="1.6373645"
       inkscape:rounded="0"
       inkscape:randomized="0"
       d="M 109.97486,115.06629 85.584374,97.369275 59.060573,111.672 76.757587,87.281518 62.454859,60.757716 86.845344,78.454731 113.36915,64.152002 95.672131,88.542487 Z"
       transform="rotate(-10.98239,83.64114,62.748746)" /><path
       sodipodi:type="star"
       style="fill:#ffffff;fill-opacity:1;stroke-width:1.31;stroke-linecap:round;stroke-linejoin:round"
       id="path2-3"
       inkscape:flatsided="false"
       sodipodi:sides="4"
       sodipodi:cx="86.214859"
       sodipodi:cy="87.912003"
       sodipodi:r1="36.081753"
       sodipodi:r2="9.4782648"
       sodipodi:arg1="0.85196633"
       sodipodi:arg2="1.6373645"
       inkscape:rounded="0"
       inkscape:randomized="0"
       d="M 109.97486,115.06629 85.584374,97.369275 59.060573,111.672 76.757587,87.281518 62.454859,60.757716 86.845344,78.454731 113.36915,64.152002 95.672131,88.542487 Z"
       transform="matrix(0.48470737,-0.09406298,0.09406298,0.48470737,82.538153,50.89537)" /><path
       sodipodi:type="star"
       style="fill:#ffffff;fill-opacity:1;stroke-width:1.31;stroke-linecap:round;stroke-linejoin:round"
       id="path2-3-6"
       inkscape:flatsided="false"
       sodipodi:sides="4"
       sodipodi:cx="86.214859"
       sodipodi:cy="87.912003"
       sodipodi:r1="36.081753"
       sodipodi:r2="9.4782648"
       sodipodi:arg1="0.85196633"
       sodipodi:arg2="1.6373645"
       inkscape:rounded="0"
       inkscape:randomized="0"
       d="M 109.97486,115.06629 85.584374,97.369275 59.060573,111.672 76.757587,87.281518 62.454859,60.757716 86.845344,78.454731 113.36915,64.152002 95.672131,88.542487 Z"
       transform="matrix(0.48470737,-0.09406298,0.09406298,0.48470737,50.275123,91.894277)" /><path
       d="m 8.0322859,204.56712 c -1.1891831,-0.006 -2.3830091,-0.0245 -3.5814262,-0.0555 -1.301041,1.49367 -2.6367368,2.97297 -4.00440395,4.43851 -7.09607765,-4.54526 -10.10700935,-5.84743 -17.09186475,-6.68081 -9.352791,-1.1159 -18.009061,0.60648 -26.063062,5.53454 -7.713678,4.69111 -12.120761,10.44563 -13.601066,18.3473 -1.542106,8.23155 0.886557,16.05163 6.619481,22.22269 5.722158,6.15948 14.848372,10.74056 26.462082,12.03597 19.2595684,2.14823 31.7921627,-5.4085 34.279355,-18.4175 -1.7756538,-0.19454 -3.5434326,-0.41042 -5.3037291,-0.64625 -3.2122829,11.47006 -12.6049991,17.15407 -27.1598819,15.58435 -17.380657,-1.87446 -23.566828,-11.55207 -20.804116,-27.93923 1.477692,-8.765 4.056083,-14.23894 8.310416,-18.29884 3.889809,-3.79649 10.507698,-5.54025 16.9414,-4.77825 6.927455,0.82048 12.7673154,4.15084 16.32699393,9.28071 1.86232077,2.7704 3.00978257,5.45901 5.45636687,11.7684 1.546554,0.0331 3.092118,0.0492 4.6366116,0.0471 -0.5322275,-7.48012 -1.0060119,-14.96125 -1.4231565,-22.4432 z m 35.4610541,25.6956 c 2.053892,-0.52152 4.091083,-1.10857 6.107475,-1.75994 7.736522,-2.26129 12.30992,-2.81154 16.50138,-0.10051 0,0 1e-6,0 1e-6,0 1.551649,1.00447 2.998123,2.44898 4.413041,4.36604 0.790757,1.07816 1.587258,2.15268 2.389383,3.2236 5.361046,6.9687 11.811641,7.94833 20.470806,2.06393 1.853708,-1.25971 3.347012,-2.55933 4.49443,-3.87933 4.262864,-4.90328 3.883714,-10.03833 -0.447067,-15.99946 -1.264971,0.99124 -2.54612,1.97863 -3.845226,2.95969 2.590047,4.12932 3.056595,6.76716 1.123967,8.67365 -1e-6,0 -1e-6,0 -1e-6,0 -0.201013,0.19853 -0.427868,0.38897 -0.680821,0.57189 -2.278969,1.64795 -4.1522,1.30604 -8.834729,-2.00545 -1.444887,-0.99976 -2.877196,-2.01262 -4.295427,-3.03921 -5.726578,-4.31979 -10.529213,-4.84235 -17.854678,-3.08537 0,0 -10e-7,0 -10e-7,0 -0.580655,0.13926 -1.176011,0.29164 -1.789505,0.45619 0.528429,-0.3191 1.040034,-0.64172 1.534793,-0.96705 11.401879,-7.49561 13.876405,-15.55607 10.773548,-21.07247 -0.226574,-0.40329 -0.482586,-0.80079 -0.767573,-1.19315 -0.273532,-0.37658 -0.562458,-0.72905 -0.865897,-1.05786 -4.824559,-5.2349 -12.439176,-4.21202 -21.337785,-1.14102 -1.555099,0.549 -3.179628,1.18064 -4.911415,1.88723 -3.175497,1.29563 -6.455665,2.36104 -9.791607,3.18176 -5.442955,1.3839 -11.417876,2.11973 -17.755436,2.48828 l 0.200295,3.65068 c 0.549612,-0.0317 1.09696,-0.0662 1.641942,-0.10362 5.182591,-0.27816 6.80481,-0.33435 7.610591,0.34344 0.621193,0.6252 0.643922,0.77375 1.195474,4.70345 l 5.155504,36.73191 c 0.540023,3.84755 0.564442,4.00736 -0.09664,4.88136 -0.917702,0.91052 -3.379073,1.60636 -10.566494,2.08719 -0.75657,0.0506 -1.511302,0.0957 -2.264094,0.1355 l 0.200295,3.65068 c 9.107751,-0.47886 18.532573,-1.73486 28.105141,-4.04881 5.173901,-1.27487 10.264076,-2.87485 15.23897,-4.79061 l -1.313229,-3.41083 c -0.759251,0.29237 -1.521283,0.57718 -2.285971,0.85437 -7.136182,2.58682 -10.060717,2.8145 -11.122059,2.40188 -0.973871,-0.54715 -1.01174,-0.70739 -1.967671,-4.47219 z m -0.899537,-3.54269 -4.210599,-16.58284 c -1.258564,-4.22984 -0.811366,-4.32796 4.303115,-5.96618 1.395414,-0.46924 2.776335,-0.97978 4.139455,-1.53067 2.103872,-0.85024 3.927841,-1.42213 5.599632,-1.66911 4.308085,-0.62021 7.732627,0.81125 10.356561,5.23292 2.023606,3.41004 2.474559,6.70168 0.898602,9.41756 -0.539664,0.96885 -1.376905,1.9912 -2.460344,2.98897 -1.907659,1.76077 -4.540765,3.40406 -7.569873,4.57797 -3.609332,1.39878 -7.304167,2.57866 -11.056549,3.53138 z m 82.734357,-87.93619 c -1.18676,0.87504 -2.36603,1.75332 -3.53816,2.63441 -0.31578,2.15013 -0.61153,4.29409 -0.88935,6.43263 -9.03278,1.77522 -13.17987,3.66235 -19.12391,8.50953 -8.268142,6.74241 -13.034918,14.8694 -14.594186,24.28381 -0.08079,0.47973 -0.152309,0.95396 -0.214566,1.42284 0,0 -1e-6,0 -1e-6,0 -1.048523,8.1705 0.7408,14.94052 5.480603,20.77509 4.998577,6.15313 11.87417,9.17978 19.66861,9.24055 8.72637,0.12747 18.20935,-3.52164 26.7325,-10.49072 12.81917,-10.48179 16.83374,-22.44733 11.17253,-34.43039 -1.46926,0.80523 -2.93528,1.62245 -4.39839,2.45056 4.59997,11.0132 1.93697,20.16357 -8.10575,28.34846 -12.12337,9.88065 -22.98576,8.87698 -33.83171,-4.05606 -5.692763,-6.78822 -8.204672,-12.31571 -8.350895,-18.27225 -0.198016,-5.51264 3.194564,-11.90823 8.839885,-16.51143 6.08253,-4.95969 13.4009,-7.06367 19.8393,-5.72232 3.20722,0.71912 6.30651,2.07997 12.05953,5.39218 1.2945,-0.96771 2.59533,-1.92901 3.90304,-2.8832 -4.8592,-5.7275 -9.74261,-11.43509 -14.64908,-17.12369 z"
       id="text30"
       style="font-size:77.7687px;font-family:C059;-inkscape-font-specification:C059;fill:#ffdf00;fill-opacity:1;stroke:#000000;stroke-width:3.15992;stroke-linecap:round;stroke-linejoin:round;stroke-dasharray:none;stroke-opacity:1"
       transform="matrix(0.7036001,-0.50025576,0.50025576,0.7036001,20.478247,15.401364)"
       aria-label="CRC"
       inkscape:path-effect="#path-effect31"
       inkscape:original-d="M 5.1889348,193.99128 H 2.2337242 l -3.11074798,4.58835 c -5.67711512,-4.12174 -8.55455692,-5.2105 -13.92059722,-5.2105 -7.388026,0 -13.687291,3.11075 -18.897794,9.33224 -4.977197,5.91043 -7.310258,12.443 -7.310258,20.45317 0,16.79804 10.965387,28.69665 26.285821,28.69665 12.4429916,0 20.375399,-7.31026 22.1640791,-20.3754 l -3.6551289,-0.62215 c -2.0997549,11.58754 -8.0101761,17.34242 -17.5757262,17.34242 -11.509767,0 -16.953576,-7.9324 -16.953576,-24.73044 0,-8.86563 1.16653,-14.69829 3.810666,-19.36441 2.41083,-4.35505 7.15472,-7.07695 12.209686,-7.07695 5.4438087,0 10.265468,2.87744 13.2206786,7.85464 1.47760532,2.56636 2.5663671,5.44381 4.4328159,11.58753 h 3.4218228 z m 25.5859112,29.47434 h 4.510584 c 7.854639,0.31107 10.965387,3.49959 11.820842,12.05415 l 0.388844,3.9662 c 0.933224,8.78786 3.810666,12.36522 9.954394,12.36522 6.377033,0 9.410012,-4.27728 9.643318,-13.60952 h -3.266285 c -0.311075,5.36604 -1.244299,7.6991 -3.344054,7.6991 -1.78868,0 -2.566367,-1.32207 -3.888435,-6.68811 l -1.244299,-4.89943 c -1.710912,-7.15472 -4.743891,-10.421 -10.80985,-11.97637 11.198693,-1.55538 16.564733,-6.06596 16.564733,-13.9206 0,-8.86563 -7.465795,-13.9206 -20.530936,-13.9206 h -26.90797 v 3.65513 h 1.399836 c 4.432816,0.0778 5.910421,0.31107 6.532571,1.08876 0.466612,0.69992 0.466612,0.85546 0.466612,4.82166 v 37.09567 c 0,3.88844 0,4.04397 -0.466612,4.82166 -0.62215,0.77769 -2.099755,1.01099 -6.532571,1.01099 h -1.399836 v 3.65513 h 25.508133 v -3.65513 h -1.399836 c -4.432816,0 -5.910422,-0.2333 -6.532571,-1.01099 -0.466612,-0.77769 -0.466612,-0.93322 -0.466612,-4.82166 z m 0,-3.65513 v -17.10912 c -0.155538,-4.27727 0.233306,-4.58835 5.36604,-4.51058 h 4.19951 c 7.699101,0 11.198692,3.26628 11.198692,10.34324 0,3.9662 -1.010993,6.99918 -3.032979,8.63232 -1.944217,1.63315 -5.443809,2.64414 -9.176707,2.64414 z m 86.478784,-25.81921 h -2.95521 l -3.11075,4.58835 c -5.67711,-4.12174 -8.55455,-5.2105 -13.920594,-5.2105 -7.388026,0 -13.687291,3.11075 -18.897794,9.33224 -4.977197,5.91043 -7.310258,12.443 -7.310258,20.45317 0,16.79804 10.965387,28.69665 26.285821,28.69665 12.442995,0 20.375395,-7.31026 22.164075,-20.3754 l -3.65512,-0.62215 c -2.09976,11.58754 -8.01018,17.34242 -17.575731,17.34242 -11.509767,0 -16.953576,-7.9324 -16.953576,-24.73044 0,-8.86563 1.16653,-14.69829 3.810666,-19.36441 2.41083,-4.35505 7.15472,-7.07695 12.209686,-7.07695 5.443805,0 10.265465,2.87744 13.220675,7.85464 1.47761,2.56636 2.56637,5.44381 4.43282,11.58753 h 3.42182 z" /></g></svg>
